<?xml version="1.0" encoding="utf-8"?>
<!-- Generator: Adobe Illustrator 19.0.0, SVG Export Plug-In . SVG Version: 6.00 Build 0)  -->
<svg version="1.1" id="Capa_1" xmlns="http://www.w3.org/2000/svg" xmlns:xlink="http://www.w3.org/1999/xlink" x="0px" y="0px"
	 viewBox="0 0 3458.3 6916.5" style="enable-background:new 0 0 3458.3 6916.5;" xml:space="preserve">
<style type="text/css">
	.st0{fill:#B17F4A;stroke:#000000;stroke-width:3;stroke-miterlimit:10;}
	.st1{fill:#FFFFFF;stroke:#000000;stroke-width:3;stroke-miterlimit:10;}
	.st2{fill:none;stroke:#000000;stroke-width:3;stroke-miterlimit:10;}
</style>
<g id="XMLID_71_">
	<path id="XMLID_72_" class="st0" d="M2609.1,4629v53c4.9,0,8.9,4,8.9,8.9c0,4.9-4,8.9-8.9,8.9h-42.5c-4.9,0-8.9-4-8.9-8.9
		c0-4.9,4-8.9,8.9-8.9v-53c0,0-89,0-89,0v21.3l2.8,0.4l2.6,1.1l2.2,1.7l1.7,2.2l1.1,2.6l0.4,2.8l-0.4,2.8l-1.1,2.6l-1.7,2.2
		l-2.2,1.7l-2.6,1.1l-2.8,0.4l-368.9,0l-2.8-0.4l-2.6-1.1l-2.2-1.7l-1.7-2.2l-1.1-2.6l-0.4-2.8l0.4-2.8l1.1-2.6l1.7-2.2l2.2-1.7
		l2.6-1.1l2.8-0.4V4629l-89,0v53c4.9,0,8.9,4,8.9,8.9c0,4.9-4,8.9-8.9,8.9h-42.5c-4.9,0-8.9-4-8.9-8.9c0-4.9,4-8.9,8.9-8.9v-53
		l-89,0v21.3l2.8,0.4l2.6,1.1l2.2,1.7l1.7,2.2l1.1,2.6l0.4,2.8l-0.4,2.8l-1.1,2.6l-1.7,2.2l-2.2,1.7l-2.6,1.1l-2.8,0.4l-110,0
		l-21.8,28.3l-14.2,34.2l-4.8,36.7V6755l4.8,36.7l14.2,34.2l22.5,29.4l29.4,22.5l34.2,14.2l36.7,4.8h1417.3l36.7-4.8l34.2-14.2
		l29.4-22.5l22.5-29.4l14.2-34.2l4.8-36.7V4770.7l-4.8-36.7l-14.2-34.2l-21.8-28.3h-110l-2.8-0.4l-2.6-1.1l-2.2-1.7l-1.7-2.2
		l-1.1-2.6l-0.4-2.8l0.4-2.8l1.1-2.6l1.7-2.2l2.2-1.7l2.6-1.1l2.8-0.4V4629h-89v53c4.9,0,8.9,4,8.9,8.9c0,4.9-4,8.9-8.9,8.9H3156
		c-4.9,0-8.9-4-8.9-8.9c0-4.9,4-8.9,8.9-8.9l0-53h-89v21.3l2.8,0.4l2.6,1.1l2.2,1.7l1.7,2.2l1.1,2.6l0.4,2.8l-0.4,2.8l-1.1,2.6
		l-1.7,2.2l-2.2,1.7l-2.6,1.1l-2.8,0.4h-368.9l-2.8-0.4l-2.6-1.1l-2.2-1.7l-1.7-2.2l-1.1-2.6l-0.4-2.8l0.4-2.8l1.1-2.6l1.7-2.2
		l2.2-1.7l2.6-1.1l2.8-0.4V4629H2609.1z"/>
	<g id="XMLID_95_">
		<g id="LINE_11_">
		</g>
	</g>
	<g id="XMLID_73_">
		<g id="LINE_10_">
			<polygon id="XMLID_93_" class="st1" points="2255.9,5552.5 2253.5,5549.7 2251.5,5546.6 2244.2,5541 2235.6,5537.5 
				2226.4,5536.2 2217.3,5537.5 2208.7,5541 2201.4,5546.6 2195.8,5554 2192.2,5562.5 2191,5571.7 2191,5585.9 2192.2,5595 
				2195.8,5603.6 2201.4,5610.9 2208.7,5616.5 2217.3,5620.1 2226.4,5621.3 2235.6,5620.1 2244.2,5616.5 2251.5,5610.9 
				2253.5,5607.8 2255.9,5605 2258.8,5602.7 2261.9,5600.8 2265.4,5599.4 2269,5598.6 2272.6,5598.3 2276.3,5598.6 2279.9,5599.5 
				2283.3,5600.9 2286.5,5602.8 2289.3,5605.2 2296.6,5610.9 2305.1,5614.4 2314.3,5615.6 2323.5,5614.4 2332,5610.9 2339.4,5605.2 
				2342,5603.4 2344.9,5601.9 2348,5600.7 2351.1,5599.9 2354.4,5599.5 2357.6,5599.5 2360.8,5599.9 2364,5600.6 2367.1,5601.8 
				2369.9,5603.3 2372.6,5605.2 2375.1,5607.3 2380.9,5611.8 2387.8,5614.7 2395.1,5615.6 2402.4,5614.7 2409.3,5611.8 
				2415.2,5607.3 2417.8,5605.9 2420.5,5604.8 2423.4,5604 2426.3,5603.5 2429.2,5603.4 2432.2,5603.6 2435.1,5604.1 2438,5604.9 
				2440.7,5606 2443.3,5607.4 2445.7,5609.1 2447.9,5611.1 2453.2,5615.2 2459.4,5617.7 2466,5618.6 2472.6,5617.7 2480.8,5614.5 
				2488.1,5609.6 2494.1,5603.3 2498.7,5595.8 2501.5,5587.5 2502.5,5578.8 2501.5,5570 2498.7,5561.7 2494.1,5554.2 2488.1,5547.9 
				2480.8,5543 2472.6,5539.8 2466,5539 2459.4,5539.8 2453.2,5542.4 2447.9,5546.4 2445.7,5548.4 2443.3,5550.1 2440.7,5551.5 
				2438,5552.6 2435.1,5553.5 2432.2,5554 2429.2,5554.1 2426.3,5554 2423.4,5553.5 2420.5,5552.7 2417.8,5551.6 2415.2,5550.2 
				2409.3,5545.7 2402.4,5542.9 2395.1,5541.9 2387.8,5542.9 2380.9,5545.7 2375.1,5550.2 2372.6,5552.4 2369.9,5554.2 
				2367.1,5555.7 2364,5556.9 2360.8,5557.7 2357.6,5558 2354.4,5558 2351.1,5557.6 2348,5556.9 2344.9,5555.7 2342,5554.2 
				2339.4,5552.3 2332,5546.7 2323.5,5543.1 2314.3,5541.9 2305.1,5543.1 2296.6,5546.7 2289.3,5552.3 2286.5,5554.7 2283.3,5556.6 
				2279.9,5558.1 2276.3,5558.9 2272.6,5559.2 2269,5559 2265.4,5558.2 2261.9,5556.8 2258.8,5554.9 			"/>
		</g>
		<g id="LINE_9_">
			<polygon id="XMLID_91_" class="st1" points="2917,5554.9 2913.8,5556.8 2910.4,5558.2 2906.8,5559 2903.1,5559.2 2899.4,5558.9 
				2895.8,5558.1 2892.4,5556.6 2889.3,5554.7 2886.5,5552.3 2879.1,5546.7 2870.6,5543.1 2861.4,5541.9 2852.3,5543.1 
				2843.7,5546.7 2836.4,5552.3 2833.7,5554.2 2830.8,5555.7 2827.8,5556.9 2824.6,5557.6 2821.4,5558 2818.1,5558 2814.9,5557.7 
				2811.7,5556.9 2808.7,5555.7 2805.8,5554.2 2803.1,5552.4 2800.7,5550.2 2794.8,5545.7 2788,5542.9 2780.6,5541.9 2773.3,5542.9 
				2766.5,5545.7 2760.6,5550.2 2758,5551.6 2755.2,5552.7 2752.4,5553.5 2749.5,5554 2746.5,5554.1 2743.6,5554 2740.6,5553.5 
				2737.8,5552.6 2735.1,5551.5 2732.5,5550.1 2730,5548.4 2727.8,5546.4 2722.5,5542.4 2716.4,5539.8 2709.8,5539 2703.2,5539.8 
				2695,5543 2687.7,5547.9 2681.6,5554.2 2677.1,5561.7 2674.3,5570 2673.3,5578.8 2674.3,5587.5 2677.1,5595.8 2681.6,5603.3 
				2687.7,5609.6 2695,5614.5 2703.2,5617.7 2709.8,5618.6 2716.4,5617.7 2722.5,5615.2 2727.8,5611.1 2730,5609.1 2732.5,5607.4 
				2735.1,5606 2737.8,5604.9 2740.6,5604.1 2743.6,5603.6 2746.5,5603.4 2749.5,5603.5 2752.4,5604 2755.2,5604.8 2758,5605.9 
				2760.6,5607.3 2766.5,5611.8 2773.3,5614.7 2780.6,5615.6 2788,5614.7 2794.8,5611.8 2800.7,5607.3 2803.1,5605.2 2805.8,5603.3 
				2808.7,5601.8 2811.7,5600.6 2814.9,5599.9 2818.1,5599.5 2821.4,5599.5 2824.6,5599.9 2827.8,5600.7 2830.8,5601.9 
				2833.7,5603.4 2836.4,5605.2 2843.7,5610.9 2852.3,5614.4 2861.4,5615.6 2870.6,5614.4 2879.1,5610.9 2886.5,5605.2 
				2889.3,5602.8 2892.4,5600.9 2895.8,5599.5 2899.4,5598.6 2903.1,5598.3 2906.8,5598.6 2910.4,5599.4 2913.8,5600.8 2917,5602.7 
				2919.8,5605 2922.3,5607.8 2924.2,5610.9 2931.6,5616.5 2940.1,5620.1 2949.3,5621.3 2958.5,5620.1 2967,5616.5 2974.4,5610.9 
				2980,5603.6 2983.5,5595 2984.7,5585.9 2984.7,5571.7 2983.5,5562.5 2980,5554 2974.4,5546.6 2967,5541 2958.5,5537.5 
				2949.3,5536.2 2940.1,5537.5 2931.6,5541 2924.2,5546.6 2922.3,5549.7 2919.8,5552.5 			"/>
		</g>
		<g id="LINE_8_">
			<polygon id="XMLID_90_" class="st1" points="2255.9,5728.3 2253.5,5725.5 2251.5,5722.4 2244.2,5716.7 2235.6,5713.2 
				2226.4,5712 2217.3,5713.2 2208.7,5716.7 2201.4,5722.4 2195.8,5729.7 2192.2,5738.3 2191,5747.4 2191,5761.6 2192.2,5770.8 
				2195.8,5779.3 2201.4,5786.7 2208.7,5792.3 2217.3,5795.8 2226.4,5797 2235.6,5795.8 2244.2,5792.3 2251.5,5786.7 2253.5,5783.5 
				2255.9,5780.8 2258.8,5778.4 2261.9,5776.5 2265.4,5775.1 2269,5774.3 2272.6,5774 2276.3,5774.3 2279.9,5775.2 2283.3,5776.7 
				2286.5,5778.6 2289.3,5781 2296.6,5786.6 2305.1,5790.2 2314.3,5791.4 2323.5,5790.2 2332,5786.6 2339.4,5781 2342,5779.1 
				2344.9,5777.6 2348,5776.4 2351.1,5775.6 2354.4,5775.2 2357.6,5775.2 2360.8,5775.6 2364,5776.4 2367.1,5777.5 2369.9,5779.1 
				2372.6,5780.9 2375.1,5783.1 2380.9,5787.6 2387.8,5790.4 2395.1,5791.4 2402.4,5790.4 2409.3,5787.6 2415.2,5783.1 
				2417.8,5781.7 2420.5,5780.6 2423.4,5779.8 2426.3,5779.3 2429.2,5779.1 2432.2,5779.3 2435.1,5779.8 2438,5780.6 2440.7,5781.8 
				2443.3,5783.2 2445.7,5784.9 2447.9,5786.8 2453.2,5790.9 2459.4,5793.5 2466,5794.3 2472.6,5793.5 2480.8,5790.3 2488.1,5785.4 
				2494.1,5779.1 2498.7,5771.6 2501.5,5763.2 2502.5,5754.5 2501.5,5745.8 2498.7,5737.5 2494.1,5730 2488.1,5723.6 2480.8,5718.8 
				2472.6,5715.6 2466,5714.7 2459.4,5715.6 2453.2,5718.1 2447.9,5722.2 2445.7,5724.1 2443.3,5725.8 2440.7,5727.3 2438,5728.4 
				2435.1,5729.2 2432.2,5729.7 2429.2,5729.9 2426.3,5729.7 2423.4,5729.3 2420.5,5728.5 2417.8,5727.4 2415.2,5726 2409.3,5721.5 
				2402.4,5718.6 2395.1,5717.7 2387.8,5718.6 2380.9,5721.5 2375.1,5726 2372.6,5728.1 2369.9,5730 2367.1,5731.5 2364,5732.6 
				2360.8,5733.4 2357.6,5733.8 2354.4,5733.8 2351.1,5733.4 2348,5732.6 2344.9,5731.4 2342,5729.9 2339.4,5728 2332,5722.4 
				2323.5,5718.9 2314.3,5717.7 2305.1,5718.9 2296.6,5722.4 2289.3,5728 2286.5,5730.4 2283.3,5732.4 2279.9,5733.8 2276.3,5734.7 
				2272.6,5735 2269,5734.7 2265.4,5733.9 2261.9,5732.5 2258.8,5730.6 			"/>
		</g>
		<g id="LINE_7_">
			<polygon id="XMLID_89_" class="st1" points="2917,5730.6 2913.8,5732.5 2910.4,5733.9 2906.8,5734.7 2903.1,5735 2899.4,5734.7 
				2895.8,5733.8 2892.4,5732.4 2889.3,5730.4 2886.5,5728 2879.1,5722.4 2870.6,5718.9 2861.4,5717.7 2852.3,5718.9 2843.7,5722.4 
				2836.4,5728 2833.7,5729.9 2830.8,5731.4 2827.8,5732.6 2824.6,5733.4 2821.4,5733.8 2818.1,5733.8 2814.9,5733.4 2811.7,5732.6 
				2808.7,5731.5 2805.8,5730 2803.1,5728.1 2800.7,5726 2794.8,5721.5 2788,5718.6 2780.6,5717.7 2773.3,5718.6 2766.5,5721.5 
				2760.6,5726 2758,5727.4 2755.2,5728.5 2752.4,5729.3 2749.5,5729.7 2746.5,5729.9 2743.6,5729.7 2740.6,5729.2 2737.8,5728.4 
				2735.1,5727.3 2732.5,5725.8 2730,5724.1 2727.8,5722.2 2722.5,5718.1 2716.4,5715.6 2709.8,5714.7 2703.2,5715.6 2695,5718.8 
				2687.7,5723.6 2681.6,5730 2677.1,5737.5 2674.3,5745.8 2673.3,5754.5 2674.3,5763.2 2677.1,5771.6 2681.6,5779.1 2687.7,5785.4 
				2695,5790.3 2703.2,5793.5 2709.8,5794.3 2716.4,5793.5 2722.5,5790.9 2727.8,5786.8 2730,5784.9 2732.5,5783.2 2735.1,5781.8 
				2737.8,5780.6 2740.6,5779.8 2743.6,5779.3 2746.5,5779.1 2749.5,5779.3 2752.4,5779.8 2755.2,5780.6 2758,5781.7 2760.6,5783.1 
				2766.5,5787.6 2773.3,5790.4 2780.6,5791.4 2788,5790.4 2794.8,5787.6 2800.7,5783.1 2803.1,5780.9 2805.8,5779.1 2808.7,5777.5 
				2811.7,5776.4 2814.9,5775.6 2818.1,5775.2 2821.4,5775.2 2824.6,5775.6 2827.8,5776.4 2830.8,5777.6 2833.7,5779.1 2836.4,5781 
				2843.7,5786.6 2852.3,5790.2 2861.4,5791.4 2870.6,5790.2 2879.1,5786.6 2886.5,5781 2889.3,5778.6 2892.4,5776.7 2895.8,5775.2 
				2899.4,5774.3 2903.1,5774 2906.8,5774.3 2910.4,5775.1 2913.8,5776.5 2917,5778.4 2919.8,5780.8 2922.3,5783.5 2924.2,5786.7 
				2931.6,5792.3 2940.1,5795.8 2949.3,5797 2958.5,5795.8 2967,5792.3 2974.4,5786.7 2980,5779.3 2983.5,5770.8 2984.7,5761.6 
				2984.7,5747.4 2983.5,5738.3 2980,5729.7 2974.4,5722.4 2967,5716.7 2958.5,5713.2 2949.3,5712 2940.1,5713.2 2931.6,5716.7 
				2924.2,5722.4 2922.3,5725.5 2919.8,5728.3 			"/>
		</g>
		<path id="XMLID_88_" class="st1" d="M2609.1,6562.2h199.9c9.4,0,8.4-7.6,8.4-17c0-9.4,0.9-17-8.4-17h-442.3c-9.4,0-9,7.6-9,17
			c0,9.4-0.4,17,9,17h199.9"/>
		<path id="XMLID_87_" class="st1" d="M2366.7,6755c-9.4,0-9-16.1-9-25.5c0-9.4-1.4-25.5,8-25.5h440.9c9.4,0,7.8,16.1,7.8,25.5
			c0,9.4,1.6,25.5-7.8,25.5l-5,0h-436.9"/>
		<path id="XMLID_86_" class="st1" d="M2609.1,4847.2c29.6,0,99.6,0,99.6,0l2.8-0.4l2.6-1.1l2.2-1.7l1.7-2.2l1.1-2.6l0.4-2.8
			l-0.4-2.8l-1.1-2.6l-1.7-2.2l-2.2-1.7l-2.6-1.1l-2.8-0.4v-21.3h100.3c9.4,0,8.4-7.6,8.4-17c0-9.4,0.9-17-8.4-17h-443.3h1
			c-9.4,0-9,7.6-9,17c0,9.4-0.4,17,9,17h90.2v21.3l-2.8,0.4l-2.6,1.1l-2.2,1.7l-1.7,2.2l-1.1,2.6l-0.4,2.8l0.4,2.8l1.1,2.6l1.7,2.2
			l2.2,1.7l2.6,1.1l2.8,0.4h109.6l1.8-0.2l1.7-0.7l1.5-1.1l1.1-1.5l0.7-1.7l0.2-1.8l-0.2-1.8l-0.7-1.7l-1.1-1.5l-1.5-1.1l-1.7-0.7
			l-1.8-0.2c0,0,0-29.1,0-29.1h42.5v29.1l-1.8,0.2l-1.7,0.7l-1.5,1.1l-1.1,1.5l-0.7,1.7l-0.2,1.8l0.2,1.8l0.7,1.7l1.1,1.5l1.5,1.1
			l1.7,0.7L2609.1,4847.2z"/>
		<path id="XMLID_85_" class="st1" d="M2609.1,5023c29.6,0,99.6,0,99.6,0l2.8-0.4l2.6-1.1l2.2-1.7l1.7-2.2l1.1-2.6l0.4-2.8l-0.4-2.8
			l-1.1-2.6l-1.7-2.2l-2.2-1.7l-2.6-1.1l-2.8-0.4v-21.3h100.3c9.4,0,8.4-7.6,8.4-17s0.9-17-8.4-17h-199.9l0-56.7l1.8-0.2l1.7-0.7
			l1.5-1.1l1.1-1.5l0.7-1.7l0.2-1.8l-0.2-1.8l-0.7-1.7l-1.1-1.5l-1.5-1.1l-1.7-0.7l-1.8-0.2h-42.5l-1.8,0.2l-1.7,0.7l-1.5,1.1
			l-1.1,1.5l-0.7,1.7l-0.2,1.8l0.2,1.8l0.7,1.7l1.1,1.5l1.5,1.1l1.7,0.7l1.8,0.2l0,56.7h-200.9h1c-9.4,0-9,7.6-9,17s-0.4,17,9,17
			h90.2v21.3l-2.8,0.4l-2.6,1.1l-2.2,1.7l-1.7,2.2l-1.1,2.6l-0.4,2.8l0.4,2.8l1.1,2.6l1.7,2.2l2.2,1.7l2.6,1.1l2.8,0.4h109.6
			l1.8-0.2l1.7-0.7l1.5-1.1l1.1-1.5l0.7-1.7l0.2-1.8l-0.2-1.8l-0.7-1.7l-1.1-1.5l-1.5-1.1l-1.7-0.7l-1.8-0.2c0,0,0-29.1,0-29.1h42.5
			v29.1l-1.8,0.2l-1.7,0.7l-1.5,1.1l-1.1,1.5l-0.7,1.7l-0.2,1.8l0.2,1.8l0.7,1.7l1.1,1.5l1.5,1.1l1.7,0.7L2609.1,5023z"/>
		<path id="XMLID_84_" class="st1" d="M2609.1,5198.7c29.6,0,99.6,0,99.6,0l2.8-0.4l2.6-1.1l2.2-1.7l1.7-2.2l1.1-2.6l0.4-2.8
			l-0.4-2.8l-1.1-2.6l-1.7-2.2l-2.2-1.7l-2.6-1.1l-2.8-0.4v-21.3h100.3c9.4,0,8.4-7.6,8.4-17s0.9-17-8.4-17h-199.9l0-56.7l1.8-0.2
			l1.7-0.7l1.5-1.1l1.1-1.5l0.7-1.7l0.2-1.8l-0.2-1.8l-0.7-1.7l-1.1-1.5l-1.5-1.1l-1.7-0.7l-1.8-0.2h-42.5l-1.8,0.2l-1.7,0.7
			l-1.5,1.1l-1.1,1.5l-0.7,1.7l-0.2,1.8l0.2,1.8l0.7,1.7l1.1,1.5l1.5,1.1l1.7,0.7l1.8,0.2l0,56.7h-200.9h1c-9.4,0-9,7.6-9,17
			s-0.4,17,9,17h90.2v21.3l-2.8,0.4l-2.6,1.1l-2.2,1.7l-1.7,2.2l-1.1,2.6l-0.4,2.8l0.4,2.8l1.1,2.6l1.7,2.2l2.2,1.7l2.6,1.1l2.8,0.4
			h109.6l1.8-0.2l1.7-0.7l1.5-1.1l1.1-1.5l0.7-1.7l0.2-1.8l-0.2-1.8l-0.7-1.7l-1.1-1.5l-1.5-1.1l-1.7-0.7l-1.8-0.2
			c0,0,0-29.1,0-29.1h42.5v29.1l-1.8,0.2l-1.7,0.7l-1.5,1.1l-1.1,1.5l-0.7,1.7l-0.2,1.8l0.2,1.8l0.7,1.7l1.1,1.5l1.5,1.1l1.7,0.7
			L2609.1,5198.7z"/>
		<path id="XMLID_83_" class="st1" d="M2609.1,5332v53c4.9,0,8.9,4,8.9,8.9c0,4.9-4,8.9-8.9,8.9h-42.5c-4.9,0-8.9-4-8.9-8.9
			c0-4.9,4-8.9,8.9-8.9v-53h-199.9c-9.4,0-9-7.6-9-17s-0.4-17,9-17h199.9l0-56.7h0l-1.8-0.2l-1.7-0.7l-1.5-1.1l-1.1-1.5l-0.7-1.7
			l-0.2-1.8l0.2-1.8l0.7-1.7l1.1-1.5l1.5-1.1l1.7-0.7l1.8-0.2h42.5l1.8,0.2l1.7,0.7l1.5,1.1l1.1,1.5l0.7,1.7l0.2,1.8l-0.2,1.8
			l-0.7,1.7l-1.1,1.5l-1.5,1.1l-1.7,0.7l-1.8,0.2c0,0,0,56.7,0,56.7h199.9c9.4,0,8.4,7.6,8.4,17s0.9,17-8.4,17H2609.1"/>
		<path id="XMLID_82_" class="st1" d="M2609.1,5507.7v53c4.9,0,8.9,4,8.9,8.9c0,4.9-4,8.9-8.9,8.9h-42.5c-4.9,0-8.9-4-8.9-8.9
			c0-4.9,4-8.9,8.9-8.9v-53h-199.9c-9.4,0-9-7.6-9-17c0-9.4-0.4-17,9-17h442.3c9.4,0,8.4,7.6,8.4,17c0,9.4,0.9,17-8.4,17H2609.1"/>
		<path id="XMLID_81_" class="st1" d="M2609.1,5683.5v53c4.9,0,8.9,4,8.9,8.9c0,4.9-4,8.9-8.9,8.9h-42.5c-4.9,0-8.9-4-8.9-8.9
			c0-4.9,4-8.9,8.9-8.9v-53h-199.9c-9.4,0-9-7.6-9-17c0-9.4-0.4-17,9-17h442.3c9.4,0,8.4,7.6,8.4,17c0,9.4,0.9,17-8.4,17
			L2609.1,5683.5"/>
		<path id="XMLID_80_" class="st1" d="M2609.1,5859.2v53c4.9,0,8.9,4,8.9,8.9c0,4.9-4,8.9-8.9,8.9h-42.5c-4.9,0-8.9-4-8.9-8.9
			c0-4.9,4-8.9,8.9-8.9v-53h-199.9c-9.4,0-9-7.6-9-17c0-9.4-0.4-17,9-17h442.3c9.4,0,8.4,7.6,8.4,17c0,9.4,0.9,17-8.4,17H2609.1"/>
		<path id="XMLID_79_" class="st1" d="M2609.1,6035v53c4.9,0,8.9,4,8.9,8.9c0,4.9-4,8.9-8.9,8.9h-42.5c-4.9,0-8.9-4-8.9-8.9
			c0-4.9,4-8.9,8.9-8.9v-53v0l-199.9,0v0c-9.4,0-9-7.6-9-17c0-9.4-0.4-17,9-17h442.3c9.4,0,8.4,7.6,8.4,17c0,9.4,0.9,17-8.4,17
			L2609.1,6035"/>
		<path id="XMLID_78_" class="st1" d="M2609.1,6210.7v53c4.9,0,8.9,4,8.9,8.9s-4,8.9-8.9,8.9h-42.5c-4.9,0-8.9-4-8.9-8.9
			s4-8.9,8.9-8.9v-53v0h-199.9c-9.4,0-9-7.6-9-17c0-9.4-0.4-17,9-17h442.3c9.4,0,8.4,7.6,8.4,17c0,9.4,0.9,17-8.4,17L2609.1,6210.7"
			/>
		<path id="XMLID_77_" class="st1" d="M2609.1,6386.5v53c4.9,0,8.9,4,8.9,8.9s-4,8.9-8.9,8.9h-42.5c-4.9,0-8.9-4-8.9-8.9
			s4-8.9,8.9-8.9v-53v0h-199.9c-9.4,0-9-7.6-9-17c0-9.4-0.4-17,9-17h442.3c9.4,0,8.4,7.6,8.4,17c0,9.4,0.9,17-8.4,17L2609.1,6386.5"
			/>
		<path id="XMLID_76_" class="st1" d="M2566.6,6562.2v53c-4.9,0-8.9,4-8.9,8.9s4,8.9,8.9,8.9h42.5c4.9,0,8.9-4,8.9-8.9
			s-4-8.9-8.9-8.9v-53"/>
		<path id="XMLID_75_" class="st1" d="M2084.3,5008.8c0,0,0-29.1,0-29.1h42.5v29.1l-1.8,0.2l-1.7,0.7l-1.5,1.1l-1.1,1.5l-0.7,1.7
			l-0.2,1.8l0.2,1.8l0.7,1.7l1.1,1.5l1.5,1.1l1.7,0.7c0,0,1.8,0.2,1.8,0.2l109.6,0l2.8-0.4l2.6-1.1l2.2-1.7l1.7-2.2l1.1-2.6l0.4-2.8
			l-0.4-2.8l-1.1-2.6l-1.7-2.2l-2.2-1.7l-2.6-1.1l-2.8-0.4v-21.3h98.1c9.4,0,8.1-7.6,8.1-17s1.3-17-8.1-17h-207.8l0-56.7l1.8-0.2
			l1.7-0.7l1.5-1.1l1.1-1.5l0.7-1.7l0.2-1.8l-0.2-1.8l-0.7-1.7l-1.1-1.5l-1.5-1.1l-1.7-0.7l-1.8-0.2h-42.5l-1.8,0.2l-1.7,0.7
			l-1.5,1.1l-1.1,1.5l-0.7,1.7l-0.2,1.8l0.2,1.8l0.7,1.7l1.1,1.5l1.5,1.1l1.7,0.7l1.8,0.2v56.7h-35.4l-9.2-1.2l-8.5-3.5l-7.3-5.6
			l-5.6-7.3l-3.5-8.5l-1.2-9.2v-63.8c26.5,0,70.9,0,70.9,0l1.8-0.2l1.7-0.7l1.5-1.1l1.1-1.5l0.7-1.7l0.2-1.8l-0.2-1.8l-0.7-1.7
			l-1.1-1.5l-1.5-1.1l-1.7-0.7l-1.8-0.2v0v0c0,0,0-29.1,0-29.1h42.5v29.1l-1.8,0.2l-1.7,0.7l-1.5,1.1l-1.1,1.5l-0.7,1.7l-0.2,1.8
			l0.2,1.8l0.7,1.7l1.1,1.5l1.5,1.1l1.7,0.7c0,0,1.8,0.2,1.8,0.2h109.6l2.8-0.4l2.6-1.1l2.2-1.7l1.7-2.2l1.1-2.6l0.4-2.8l-0.4-2.8
			l-1.1-2.6l-1.7-2.2l-2.2-1.7l-2.6-1.1l-2.8-0.4v-21.3h98.1c9.4,0,8.1-7.6,8.1-17c0-9.4,1.3-17-8.1-17h1h-358.4l-23.8,3.1l-24.2,10
			l-20.8,16l-16,20.8l-10,24.2l-3.1,23.8h-53c0-4.9-4-8.9-8.9-8.9s-8.9,4-8.9,8.9v42.5c0,4.9,4,8.9,8.9,8.9s8.9-4,8.9-8.9h53v830.4
			h-53c0-4.9-4-8.9-8.9-8.9s-8.9,4-8.9,8.9v42.5c0,4.9,4,8.9,8.9,8.9s8.9-4,8.9-8.9h53v830.4h-53c0-4.9-4-8.9-8.9-8.9
			s-8.9,4-8.9,8.9v42.5c0,4.9,4,8.9,8.9,8.9s8.9-4,8.9-8.9l53,0l3.1,23.8l10,24.2l16,20.8l20.8,16l24.2,10l23.8,3.1v53
			c-4.9,0-8.9,4-8.9,8.9c0,4.9,4,8.9,8.9,8.9h42.5c4.9,0,8.9-4,8.9-8.9c0-4.9-4-8.9-8.9-8.9v-53h315.9l-1,0c9.4,0,8.1-16.1,8.1-25.5
			c0-9.4,1.3-25.5-8.1-25.5h-285.7l-9.2-1.2l-8.5-3.5l-7.3-5.6l-5.6-7.3l-3.5-8.5l-1.2-9.2v-70.9l1.2-9.2l3.5-8.5l5.6-7.3l7.3-5.6
			l8.5-3.5l9.2-1.2h35.4v0v53c-4.9,0-8.9,4-8.9,8.9s4,8.9,8.9,8.9h42.5c4.9,0,8.9-4,8.9-8.9s-4-8.9-8.9-8.9v-53v0h207.8
			c9.4,0,8.1-7.6,8.1-17c0-9.4,1.3-17-8.1-17h-285.7l-9.2-1.2l-8.5-3.5l-7.3-5.6l-5.6-7.3l-3.5-8.5l-1.2-9.2v-70.9l1.2-9.2l3.5-8.5
			l5.6-7.3l7.3-5.6l8.5-3.5l9.2-1.2h35.4v0v53c-4.9,0-8.9,4-8.9,8.9s4,8.9,8.9,8.9h42.5c4.9,0,8.9-4,8.9-8.9s-4-8.9-8.9-8.9v-53v0
			h207.8c9.4,0,8.1-7.6,8.1-17c0-9.4,1.3-17-8.1-17h-285.7l-9.2-1.2l-8.5-3.5l-7.3-5.6l-5.6-7.3l-3.5-8.5l-1.2-9.2v-70.9l1.2-9.2
			l3.5-8.5l5.6-7.3l7.3-5.6l8.5-3.5l9.2-1.2h35.4v0v53c-4.9,0-8.9,4-8.9,8.9s4,8.9,8.9,8.9h42.5c4.9,0,8.9-4,8.9-8.9s-4-8.9-8.9-8.9
			v-53v0h207.8c9.4,0,8.1-7.6,8.1-17c0-9.4,1.3-17-8.1-17h-285.7l-9.2-1.2l-8.5-3.5l-7.3-5.6l-5.6-7.3l-3.5-8.5l-1.2-9.2v-70.9
			l1.2-9.2l3.5-8.5l5.6-7.3l7.3-5.6l8.5-3.5l9.2-1.2h35.4v0v53c-4.9,0-8.9,4-8.9,8.9c0,4.9,4,8.9,8.9,8.9h42.5c4.9,0,8.9-4,8.9-8.9
			c0-4.9-4-8.9-8.9-8.9v-53v0h207.8c9.4,0,8.1-7.6,8.1-17c0-9.4,1.3-17-8.1-17h-285.7l-9.2-1.2l-8.5-3.5l-7.3-5.6l-5.6-7.3l-3.5-8.5
			l-1.2-9.2v-70.9l1.2-9.2l3.5-8.5l5.6-7.3l7.3-5.6l8.5-3.5l9.2-1.2h35.4v53c-4.9,0-8.9,4-8.9,8.9c0,4.9,4,8.9,8.9,8.9h42.5
			c4.9,0,8.9-4,8.9-8.9c0-4.9-4-8.9-8.9-8.9v-53h207.8c9.4,0,8.1-7.6,8.1-17c0-9.4,1.3-17-8.1-17h-285.7l-9.2-1.2l-8.5-3.5l-7.3-5.6
			l-5.6-7.3l-3.5-8.5l-1.2-9.2v-70.9l1.2-9.2l3.5-8.5l5.6-7.3l7.3-5.6l8.5-3.5l9.2-1.2l35.4,0v53c-4.9,0-8.9,4-8.9,8.9
			c0,4.9,4,8.9,8.9,8.9h42.5c4.9,0,8.9-4,8.9-8.9c0-4.9-4-8.9-8.9-8.9v-53h207.8c9.4,0,8.1-7.6,8.1-17c0-9.4,1.3-17-8.1-17h-285.7
			l-9.2-1.2l-8.5-3.5l-7.3-5.6l-5.6-7.3l-3.5-8.5l-1.2-9.2v-70.9l1.2-9.2l3.5-8.5l5.6-7.3l7.3-5.6l8.5-3.5l9.2-1.2h35.4v53
			c-4.9,0-8.9,4-8.9,8.9c0,4.9,4,8.9,8.9,8.9h42.5c4.9,0,8.9-4,8.9-8.9c0-4.9-4-8.9-8.9-8.9v-53h207.8c9.4,0,8.1-7.6,8.1-17
			c0-9.4,1.3-17-8.1-17h-285.7l-9.2-1.2l-8.5-3.5l-7.3-5.6l-5.6-7.3l-3.5-8.5l-1.2-9.2v-70.9l1.2-9.2l3.5-8.5l5.6-7.3l7.3-5.6
			l8.5-3.5l9.2-1.2h35.4v53c-4.9,0-8.9,4-8.9,8.9c0,4.9,4,8.9,8.9,8.9h42.5c4.9,0,8.9-4,8.9-8.9c0-4.9-4-8.9-8.9-8.9v-53h207.8
			c9.4,0,8.1-7.6,8.1-17s1.3-17-8.1-17h-207.8l0-56.7l1.8-0.2l1.7-0.7l1.5-1.1l1.1-1.5l0.7-1.7l0.2-1.8l-0.2-1.8l-0.7-1.7l-1.1-1.5
			l-1.5-1.1l-1.7-0.7l-1.8-0.2h-42.5l-1.8,0.2l-1.7,0.7l-1.5,1.1l-1.1,1.5l-0.7,1.7l-0.2,1.8l0.2,1.8l0.7,1.7l1.1,1.5l1.5,1.1
			l1.7,0.7l1.8,0.2v56.7h-35.4l-9.2-1.2l-8.5-3.5l-7.3-5.6l-5.6-7.3l-3.5-8.5l-1.2-9.2v-63.8c26.5,0,70.9,0,70.9,0v0l1.8-0.2
			l1.7-0.7l1.5-1.1l1.1-1.5l0.7-1.7l0.2-1.8l-0.2-1.8l-0.7-1.7l-1.1-1.5l-1.5-1.1l-1.7-0.7l-1.8-0.2v0c0,0,0-29.1,0-29.1h42.5v29.1
			l-1.8,0.2l-1.7,0.7l-1.5,1.1l-1.1,1.5l-0.7,1.7l-0.2,1.8l0.2,1.8l0.7,1.7l1.1,1.5l1.5,1.1l1.7,0.7c0,0,1.8,0.2,1.8,0.2h109.6
			l2.8-0.4l2.6-1.1l2.2-1.7l1.7-2.2l1.1-2.6l0.4-2.8l-0.4-2.8l-1.1-2.6l-1.7-2.2l-2.2-1.7l-2.6-1.1l-2.8-0.4v-21.3h98.1
			c9.4,0,8.1-7.6,8.1-17c0-9.4,1.3-17-8.1-17h-207.8l0-56.7l1.8-0.2l1.7-0.7l1.5-1.1l1.1-1.5l0.7-1.7l0.2-1.8l-0.2-1.8l-0.7-1.7
			l-1.1-1.5l-1.5-1.1l-1.7-0.7l-1.8-0.2h-42.5l-1.8,0.2l-1.7,0.7l-1.5,1.1l-1.1,1.5l-0.7,1.7l-0.2,1.8l0.2,1.8l0.7,1.7l1.1,1.5
			l1.5,1.1l1.7,0.7l1.8,0.2v56.7h-35.4l-9.2-1.2l-8.5-3.5l-7.3-5.6l-5.6-7.3l-3.5-8.5l-1.2-9.2V5023c26.5,0,70.9,0,70.9,0l1.8-0.2
			l1.7-0.7l1.5-1.1l1.1-1.5l0.7-1.7l0.2-1.8l-0.2-1.8l-0.7-1.7l-1.1-1.5l-1.5-1.1l-1.7-0.7L2084.3,5008.8L2084.3,5008.8"/>
		<path id="XMLID_74_" class="st1" d="M3091.6,5008.8c0,0,0-29.1,0-29.1H3049v29.1l1.8,0.2l1.7,0.7l1.5,1.1l1.1,1.5l0.7,1.7l0.2,1.8
			l-0.2,1.8l-0.7,1.7l-1.1,1.5l-1.5,1.1l-1.7,0.7c0,0-1.8,0.2-1.8,0.2l-109.6,0l-2.8-0.4l-2.6-1.1l-2.2-1.7l-1.7-2.2l-1.1-2.6
			l-0.4-2.8l0.4-2.8l1.1-2.6l1.7-2.2l2.2-1.7l2.6-1.1l2.8-0.4v-21.3h-98.1c-9.4,0-8.1-7.6-8.1-17s-1.3-17,8.1-17H3049l0-56.7
			l-1.8-0.2l-1.7-0.7l-1.5-1.1l-1.1-1.5l-0.7-1.7l-0.2-1.8l0.2-1.8l0.7-1.7l1.1-1.5l1.5-1.1l1.7-0.7l1.8-0.2h42.5l1.8,0.2l1.7,0.7
			l1.5,1.1l1.1,1.5l0.7,1.7l0.2,1.8l-0.2,1.8l-0.7,1.7l-1.1,1.5l-1.5,1.1l-1.7,0.7l-1.8,0.2v56.7h35.4l9.2-1.2l8.5-3.5l7.3-5.6
			l5.6-7.3l3.5-8.5l1.2-9.2v-63.8c-26.5,0-70.9,0-70.9,0l-1.8-0.2l-1.7-0.7l-1.5-1.1l-1.1-1.5l-0.7-1.7l-0.2-1.8l0.2-1.8l0.7-1.7
			l1.1-1.5l1.5-1.1l1.7-0.7l1.8-0.2v0v0c0,0,0-29.1,0-29.1H3049v29.1l1.8,0.2l1.7,0.7l1.5,1.1l1.1,1.5l0.7,1.7l0.2,1.8l-0.2,1.8
			l-0.7,1.7l-1.1,1.5l-1.5,1.1l-1.7,0.7c0,0-1.8,0.2-1.8,0.2h-109.6l-2.8-0.4l-2.6-1.1l-2.2-1.7l-1.7-2.2l-1.1-2.6l-0.4-2.8l0.4-2.8
			l1.1-2.6l1.7-2.2l2.2-1.7l2.6-1.1l2.8-0.4v-21.3h-98.1c-9.4,0-8.1-7.6-8.1-17c0-9.4-1.3-17,8.1-17h-1h358.4l23.8,3.1l24.2,10
			l20.8,16l16,20.8l10,24.2l3.1,23.8h53c0-4.9,4-8.9,8.9-8.9c4.9,0,8.9,4,8.9,8.9v42.5c0,4.9-4,8.9-8.9,8.9c-4.9,0-8.9-4-8.9-8.9
			h-53v830.4h53c0-4.9,4-8.9,8.9-8.9c4.9,0,8.9,4,8.9,8.9v42.5c0,4.9-4,8.9-8.9,8.9c-4.9,0-8.9-4-8.9-8.9h-53v830.4h53
			c0-4.9,4-8.9,8.9-8.9c4.9,0,8.9,4,8.9,8.9v42.5c0,4.9-4,8.9-8.9,8.9c-4.9,0-8.9-4-8.9-8.9l-53,0l-3.1,23.8l-10,24.2l-16,20.8
			l-20.8,16l-24.2,10l-23.8,3.1v53c4.9,0,8.9,4,8.9,8.9c0,4.9-4,8.9-8.9,8.9h-42.5c-4.9,0-8.9-4-8.9-8.9c0-4.9,4-8.9,8.9-8.9v-53
			h-315.9l1,0c-9.4,0-8.1-16.1-8.1-25.5c0-9.4-1.3-25.5,8.1-25.5H3127l9.2-1.2l8.5-3.5l7.3-5.6l5.6-7.3l3.5-8.5l1.2-9.2v-70.9
			l-1.2-9.2l-3.5-8.5l-5.6-7.3l-7.3-5.6l-8.5-3.5l-9.2-1.2h-35.4v0v53c4.9,0,8.9,4,8.9,8.9s-4,8.9-8.9,8.9H3049
			c-4.9,0-8.9-4-8.9-8.9s4-8.9,8.9-8.9v-53v0h-207.8c-9.4,0-8.1-7.6-8.1-17c0-9.4-1.3-17,8.1-17H3127l9.2-1.2l8.5-3.5l7.3-5.6
			l5.6-7.3l3.5-8.5l1.2-9.2v-70.9l-1.2-9.2l-3.5-8.5l-5.6-7.3l-7.3-5.6l-8.5-3.5l-9.2-1.2h-35.4v0v53c4.9,0,8.9,4,8.9,8.9
			s-4,8.9-8.9,8.9H3049c-4.9,0-8.9-4-8.9-8.9s4-8.9,8.9-8.9v-53v0h-207.8c-9.4,0-8.1-7.6-8.1-17c0-9.4-1.3-17,8.1-17H3127l9.2-1.2
			l8.5-3.5l7.3-5.6l5.6-7.3l3.5-8.5l1.2-9.2v-70.9l-1.2-9.2l-3.5-8.5l-5.6-7.3l-7.3-5.6l-8.5-3.5l-9.2-1.2h-35.4v0v53
			c4.9,0,8.9,4,8.9,8.9s-4,8.9-8.9,8.9H3049c-4.9,0-8.9-4-8.9-8.9s4-8.9,8.9-8.9v-53v0h-207.8c-9.4,0-8.1-7.6-8.1-17
			c0-9.4-1.3-17,8.1-17H3127l9.2-1.2l8.5-3.5l7.3-5.6l5.6-7.3l3.5-8.5l1.2-9.2v-70.9l-1.2-9.2l-3.5-8.5l-5.6-7.3l-7.3-5.6l-8.5-3.5
			l-9.2-1.2h-35.4v0v53c4.9,0,8.9,4,8.9,8.9c0,4.9-4,8.9-8.9,8.9H3049c-4.9,0-8.9-4-8.9-8.9c0-4.9,4-8.9,8.9-8.9v-53v0h-207.8
			c-9.4,0-8.1-7.6-8.1-17c0-9.4-1.3-17,8.1-17H3127l9.2-1.2l8.5-3.5l7.3-5.6l5.6-7.3l3.5-8.5l1.2-9.2v-70.9l-1.2-9.2l-3.5-8.5
			l-5.6-7.3l-7.3-5.6l-8.5-3.5l-9.2-1.2h-35.4v53c4.9,0,8.9,4,8.9,8.9c0,4.9-4,8.9-8.9,8.9H3049c-4.9,0-8.9-4-8.9-8.9
			c0-4.9,4-8.9,8.9-8.9v-53h-207.8c-9.4,0-8.1-7.6-8.1-17c0-9.4-1.3-17,8.1-17H3127l9.2-1.2l8.5-3.5l7.3-5.6l5.6-7.3l3.5-8.5
			l1.2-9.2v-70.9l-1.2-9.2l-3.5-8.5l-5.6-7.3l-7.3-5.6l-8.5-3.5l-9.2-1.2l-35.4,0v53c4.9,0,8.9,4,8.9,8.9c0,4.9-4,8.9-8.9,8.9H3049
			c-4.9,0-8.9-4-8.9-8.9c0-4.9,4-8.9,8.9-8.9v-53h-207.8c-9.4,0-8.1-7.6-8.1-17c0-9.4-1.3-17,8.1-17H3127l9.2-1.2l8.5-3.5l7.3-5.6
			l5.6-7.3l3.5-8.5l1.2-9.2v-70.9l-1.2-9.2l-3.5-8.5l-5.6-7.3l-7.3-5.6l-8.5-3.5l-9.2-1.2h-35.4v53c4.9,0,8.9,4,8.9,8.9
			c0,4.9-4,8.9-8.9,8.9H3049c-4.9,0-8.9-4-8.9-8.9c0-4.9,4-8.9,8.9-8.9v-53h-207.8c-9.4,0-8.1-7.6-8.1-17c0-9.4-1.3-17,8.1-17H3127
			l9.2-1.2l8.5-3.5l7.3-5.6l5.6-7.3l3.5-8.5l1.2-9.2v-70.9l-1.2-9.2l-3.5-8.5l-5.6-7.3l-7.3-5.6l-8.5-3.5l-9.2-1.2h-35.4v53
			c4.9,0,8.9,4,8.9,8.9c0,4.9-4,8.9-8.9,8.9H3049c-4.9,0-8.9-4-8.9-8.9c0-4.9,4-8.9,8.9-8.9v-53h-207.8c-9.4,0-8.1-7.6-8.1-17
			s-1.3-17,8.1-17H3049l0-56.7l-1.8-0.2l-1.7-0.7l-1.5-1.1l-1.1-1.5l-0.7-1.7l-0.2-1.8l0.2-1.8l0.7-1.7l1.1-1.5l1.5-1.1l1.7-0.7
			l1.8-0.2h42.5l1.8,0.2l1.7,0.7l1.5,1.1l1.1,1.5l0.7,1.7l0.2,1.8l-0.2,1.8l-0.7,1.7l-1.1,1.5l-1.5,1.1l-1.7,0.7l-1.8,0.2v56.7h35.4
			l9.2-1.2l8.5-3.5l7.3-5.6l5.6-7.3l3.5-8.5l1.2-9.2v-63.8c-26.5,0-70.9,0-70.9,0v0l-1.8-0.2l-1.7-0.7l-1.5-1.1l-1.1-1.5l-0.7-1.7
			l-0.2-1.8l0.2-1.8l0.7-1.7l1.1-1.5l1.5-1.1l1.7-0.7l1.8-0.2l0,0c0,0,0-29.1,0-29.1H3049v29.1l1.8,0.2l1.7,0.7l1.5,1.1l1.1,1.5
			l0.7,1.7l0.2,1.8l-0.2,1.8l-0.7,1.7l-1.1,1.5l-1.5,1.1l-1.7,0.7c0,0-1.8,0.2-1.8,0.2h-109.6l-2.8-0.4l-2.6-1.1l-2.2-1.7l-1.7-2.2
			l-1.1-2.6l-0.4-2.8l0.4-2.8l1.1-2.6l1.7-2.2l2.2-1.7l2.6-1.1l2.8-0.4v-21.3h-98.1c-9.4,0-8.1-7.6-8.1-17c0-9.4-1.3-17,8.1-17H3049
			l0-56.7l-1.8-0.2l-1.7-0.7l-1.5-1.1l-1.1-1.5l-0.7-1.7l-0.2-1.8l0.2-1.8l0.7-1.7l1.1-1.5l1.5-1.1l1.7-0.7l1.8-0.2h42.5l1.8,0.2
			l1.7,0.7l1.5,1.1l1.1,1.5l0.7,1.7l0.2,1.8l-0.2,1.8l-0.7,1.7l-1.1,1.5l-1.5,1.1l-1.7,0.7l-1.8,0.2v56.7h35.4l9.2-1.2l8.5-3.5
			l7.3-5.6l5.6-7.3l3.5-8.5l1.2-9.2V5023c-26.5,0-70.9,0-70.9,0l-1.8-0.2l-1.7-0.7l-1.5-1.1l-1.1-1.5l-0.7-1.7l-0.2-1.8l0.2-1.8
			l0.7-1.7l1.1-1.5l1.5-1.1l1.7-0.7L3091.6,5008.8L3091.6,5008.8"/>
	</g>
</g>
<g id="XMLID_25_">
	<g id="XMLID_26_">
		<g id="XMLID_36_">
			<path id="XMLID_37_" class="st0" d="M2612.1,2323.9v53c4.9,0,8.9,4,8.9,8.9c0,4.9-4,8.9-8.9,8.9h-42.5c-4.9,0-8.9-4-8.9-8.9
				c0-4.9,4-8.9,8.9-8.9v-53c0,0-89,0-89,0v21.3l2.8,0.4l2.6,1.1l2.2,1.7l1.7,2.2l1.1,2.6l0.4,2.8l-0.4,2.8l-1.1,2.6l-1.7,2.2
				l-2.2,1.7l-2.6,1.1l-2.8,0.4l-368.9,0l-2.8-0.4l-2.6-1.1l-2.2-1.7l-1.7-2.2l-1.1-2.6l-0.4-2.8l0.4-2.8l1.1-2.6l1.7-2.2l2.2-1.7
				l2.6-1.1l2.8-0.4v-21.3l-89,0v53c4.9,0,8.9,4,8.9,8.9c0,4.9-4,8.9-8.9,8.9h-42.5c-4.9,0-8.9-4-8.9-8.9c0-4.9,4-8.9,8.9-8.9v-53
				l-89,0v21.3l2.8,0.4l2.6,1.1l2.2,1.7l1.7,2.2l1.1,2.6l0.4,2.8l-0.4,2.8l-1.1,2.6l-1.7,2.2l-2.2,1.7l-2.6,1.1l-2.8,0.4l-110,0
				l-21.8,28.3l-14.2,34.2l-4.8,36.7v1984.3l4.8,36.7l14.2,34.2l22.5,29.4l29.4,22.5l34.2,14.2l36.7,4.8h1417.3l36.7-4.8l34.2-14.2
				l29.4-22.5l22.5-29.4l14.2-34.2l4.8-36.7V2465.6l-4.8-36.7l-14.2-34.2l-21.8-28.3h-110l-2.8-0.4l-2.6-1.1l-2.2-1.7l-1.7-2.2
				l-1.1-2.6l-0.4-2.8l0.4-2.8l1.1-2.6l1.7-2.2l2.2-1.7l2.6-1.1l2.8-0.4v-21.3h-89v53c4.9,0,8.9,4,8.9,8.9c0,4.9-4,8.9-8.9,8.9H3159
				c-4.9,0-8.9-4-8.9-8.9c0-4.9,4-8.9,8.9-8.9l0-53h-89v21.3l2.8,0.4l2.6,1.1l2.2,1.7l1.7,2.2l1.1,2.6l0.4,2.8l-0.4,2.8l-1.1,2.6
				l-1.7,2.2l-2.2,1.7l-2.6,1.1l-2.8,0.4h-368.9l-2.8-0.4l-2.6-1.1l-2.2-1.7l-1.7-2.2l-1.1-2.6l-0.4-2.8l0.4-2.8l1.1-2.6l1.7-2.2
				l2.2-1.7l2.6-1.1l2.8-0.4v-21.3H2612.1z"/>
			<g id="LINE_4_">
				<path id="XMLID_38_" class="st1" d="M3299.5,3479v830.4c0,0,53,0,53,0c0-4.9,4-8.9,8.9-8.9c4.9,0,8.9,4,8.9,8.9v42.5
					c0,4.9-4,8.9-8.9,8.9c-4.9,0-8.9-4-8.9-8.9h-53l-3.1,23.8l-10,24.2l-16,20.8l-20.8,16l-24.2,10l-23.8,3.1v53
					c4.9,0,8.9,4,8.9,8.9s-4,8.9-8.9,8.9H3159c-4.9,0-8.9-4-8.9-8.9s4-8.9,8.9-8.9v-53H2022.7v53c4.9,0,8.9,4,8.9,8.9
					s-4,8.9-8.9,8.9h-42.5c-4.9,0-8.9-4-8.9-8.9s4-8.9,8.9-8.9v-53l-23.8-3.1l-24.2-10l-20.8-16l-16-20.8l-10-24.2l-3.1-23.8h-53
					c0,4.9-4,8.9-8.9,8.9s-8.9-4-8.9-8.9v-42.5c0-4.9,4-8.9,8.9-8.9s8.9,4,8.9,8.9h53V3479l-53,0c0,4.9-4,8.9-8.9,8.9
					s-8.9-4-8.9-8.9v-42.5c0-4.9,4-8.9,8.9-8.9s8.9,4,8.9,8.9h53v-830.4h-53c0,4.9-4,8.9-8.9,8.9s-8.9-4-8.9-8.9v-42.5
					c0-4.9,4-8.9,8.9-8.9s8.9,4,8.9,8.9h53l3.1-23.8l10-24.2l16-20.8l20.8-16l24.2-10l23.8-3.1h1221.3l23.8,3.1l24.2,10l20.8,16
					l16,20.8l10,24.2l3.1,23.8l53,0c0-4.9,4-8.9,8.9-8.9c4.9,0,8.9,4,8.9,8.9v42.5c0,4.9-4,8.9-8.9,8.9c-4.9,0-8.9-4-8.9-8.9
					c0,0-53,0-53,0v830.4h53c0-4.9,4-8.9,8.9-8.9c4.9,0,8.9,4,8.9,8.9v42.5c0,4.9-4,8.9-8.9,8.9c-4.9,0-8.9-4-8.9-8.9H3299.5z"/>
			</g>
			<g id="LINE_3_">
			</g>
		</g>
		<g id="XMLID_27_">
			<g id="XMLID_34_">
				<path id="XMLID_35_" class="st1" d="M3319.3,2400.1c-1,0.5-2.7-1.1-2.7-1.1l0,0c-3.5-2.7-8.6-2.4-11.8,0.8
					c-3.2,3.2-3.5,8.3-0.8,11.8l0,0c0,0,1.7,1.7,1.1,2.7l-2.3,5.6c-0.4,1.1-2.7,1.1-2.7,1.1l0,0c-4.4,0.6-7.8,4.4-7.8,8.9
					c0,4.6,3.4,8.3,7.8,8.9v0c0,0,2.4,0,2.7,1.1l2.3,5.6c0.5,1-1.1,2.7-1.1,2.7l0,0c-2.7,3.5-2.4,8.6,0.8,11.8
					c3.2,3.2,8.3,3.5,11.8,0.8l0,0c0,0,1.7-1.7,2.7-1.1l5.6,2.3c1.1,0.4,1.1,2.7,1.1,2.7l0,0c0.6,4.4,4.4,7.8,8.9,7.8
					c4.6,0,8.3-3.4,8.9-7.8l0,0c0,0,0-2.4,1.1-2.7l5.6-2.3c1-0.5,2.7,1.1,2.7,1.1l0,0c3.5,2.7,8.6,2.4,11.8-0.8
					c3.2-3.2,3.5-8.3,0.8-11.8l0,0c0,0-1.7-1.7-1.1-2.7l2.3-5.6c0.4-1.1,2.7-1.1,2.7-1.1l0,0c4.4-0.6,7.8-4.4,7.8-8.9
					c0-4.6-3.4-8.3-7.8-8.9v0c0,0-2.4,0-2.7-1.1l-2.3-5.6c-0.5-1,1.1-2.7,1.1-2.7l0,0c2.7-3.5,2.4-8.6-0.8-11.8
					c-3.2-3.2-8.3-3.5-11.8-0.8l0,0c0,0-1.7,1.7-2.7,1.1l-5.6-2.3c-1.1-0.4-1.1-2.7-1.1-2.7l0,0c-0.6-4.4-4.4-7.8-8.9-7.8
					c-4.6,0-8.3,3.4-8.9,7.8l0,0c0,0,0,2.4-1.1,2.7L3319.3,2400.1z"/>
			</g>
			<g id="XMLID_32_">
				<path id="XMLID_33_" class="st1" d="M1830.8,2400.2c-1,0.5-2.7-1.1-2.7-1.1l0,0c-3.5-2.7-8.6-2.4-11.8,0.8
					c-3.2,3.2-3.5,8.3-0.8,11.8l0,0c0,0,1.7,1.7,1.1,2.7l-2.3,5.6c-0.4,1.1-2.7,1.1-2.7,1.1l0,0c-4.4,0.6-7.8,4.4-7.8,8.9
					c0,4.6,3.4,8.3,7.8,8.9v0c0,0,2.4,0,2.7,1.1l2.3,5.6c0.5,1-1.1,2.7-1.1,2.7l0,0c-2.7,3.5-2.4,8.6,0.8,11.8
					c3.2,3.2,8.3,3.5,11.8,0.8l0,0c0,0,1.7-1.7,2.7-1.1l5.6,2.3c1.1,0.4,1.1,2.7,1.1,2.7l0,0c0.6,4.4,4.4,7.8,8.9,7.8
					c4.6,0,8.3-3.4,8.9-7.8l0,0c0,0,0-2.4,1.1-2.7l5.6-2.3c1-0.5,2.7,1.1,2.7,1.1l0,0c3.5,2.7,8.6,2.4,11.8-0.8
					c3.2-3.2,3.5-8.3,0.8-11.8l0,0c0,0-1.7-1.7-1.1-2.7l2.3-5.6c0.4-1.1,2.7-1.1,2.7-1.1l0,0c4.4-0.6,7.8-4.4,7.8-8.9
					c0-4.6-3.4-8.3-7.8-8.9l0,0c0,0-2.4,0-2.7-1.1l-2.3-5.6c-0.5-1,1.1-2.7,1.1-2.7l0,0c2.7-3.5,2.4-8.6-0.8-11.8
					c-3.2-3.2-8.3-3.5-11.8-0.8l0,0c0,0-1.7,1.7-2.7,1.1l-5.6-2.3c-1.1-0.4-1.1-2.7-1.1-2.7l0,0c-0.6-4.4-4.4-7.8-8.9-7.8
					c-4.6,0-8.3,3.4-8.9,7.8l0,0c0,0,0,2.4-1.1,2.7L1830.8,2400.2z"/>
			</g>
			<g id="XMLID_30_">
				<path id="XMLID_31_" class="st1" d="M3319.3,4455.4c-1,0.5-2.7-1.1-2.7-1.1l0,0c-3.5-2.7-8.6-2.4-11.8,0.8
					c-3.2,3.2-3.5,8.3-0.8,11.8l0,0c0,0,1.7,1.7,1.1,2.7l-2.3,5.6c-0.4,1.1-2.7,1.1-2.7,1.1l0,0c-4.4,0.6-7.8,4.4-7.8,8.9
					c0,4.6,3.4,8.3,7.8,8.9v0c0,0,2.4,0,2.7,1.1l2.3,5.6c0.5,1-1.1,2.7-1.1,2.7l0,0c-2.7,3.5-2.4,8.6,0.8,11.8
					c3.2,3.2,8.3,3.5,11.8,0.8l0,0c0,0,1.7-1.7,2.7-1.1l5.6,2.3c1.1,0.4,1.1,2.7,1.1,2.7l0,0c0.6,4.4,4.4,7.8,8.9,7.8
					c4.6,0,8.3-3.4,8.9-7.8h0c0,0,0-2.4,1.1-2.7l5.6-2.3c1-0.5,2.7,1.1,2.7,1.1l0,0c3.5,2.7,8.6,2.4,11.8-0.8
					c3.2-3.2,3.5-8.3,0.8-11.8l0,0c0,0-1.7-1.7-1.1-2.7l2.3-5.6c0.4-1.1,2.7-1.1,2.7-1.1l0,0c4.4-0.6,7.8-4.4,7.8-8.9
					c0-4.6-3.4-8.3-7.8-8.9v0c0,0-2.4,0-2.7-1.1l-2.3-5.6c-0.5-1,1.1-2.7,1.1-2.7l0,0c2.7-3.5,2.4-8.6-0.8-11.8
					c-3.2-3.2-8.3-3.5-11.8-0.8l0,0c0,0-1.7,1.7-2.7,1.1l-5.6-2.3c-1.1-0.4-1.1-2.7-1.1-2.7l0,0c-0.6-4.4-4.4-7.8-8.9-7.8
					c-4.6,0-8.3,3.4-8.9,7.8h0c0,0,0,2.4-1.1,2.7L3319.3,4455.4z"/>
			</g>
			<g id="XMLID_28_">
				<path id="XMLID_29_" class="st1" d="M1830.8,4455.5c-1,0.5-2.7-1.1-2.7-1.1l0,0c-3.5-2.7-8.6-2.4-11.8,0.8
					c-3.2,3.2-3.5,8.3-0.8,11.8l0,0c0,0,1.7,1.7,1.1,2.7l-2.3,5.6c-0.4,1.1-2.7,1.1-2.7,1.1l0,0c-4.4,0.6-7.8,4.4-7.8,8.9
					c0,4.6,3.4,8.3,7.8,8.9v0c0,0,2.4,0,2.7,1.1l2.3,5.6c0.5,1-1.1,2.7-1.1,2.7l0,0c-2.7,3.5-2.4,8.6,0.8,11.8
					c3.2,3.2,8.3,3.5,11.8,0.8l0,0c0,0,1.7-1.7,2.7-1.1l5.6,2.3c1.1,0.4,1.1,2.7,1.1,2.7l0,0c0.6,4.4,4.4,7.8,8.9,7.8
					c4.6,0,8.3-3.4,8.9-7.8h0c0,0,0-2.4,1.1-2.7l5.6-2.3c1-0.5,2.7,1.1,2.7,1.1l0,0c3.5,2.7,8.6,2.4,11.8-0.8
					c3.2-3.2,3.5-8.3,0.8-11.8l0,0c0,0-1.7-1.7-1.1-2.7l2.3-5.6c0.4-1.1,2.7-1.1,2.7-1.1l0,0c4.4-0.6,7.8-4.4,7.8-8.9
					c0-4.6-3.4-8.3-7.8-8.9l0,0c0,0-2.4,0-2.7-1.1l-2.3-5.6c-0.5-1,1.1-2.7,1.1-2.7l0,0c2.7-3.5,2.4-8.6-0.8-11.8
					c-3.2-3.2-8.3-3.5-11.8-0.8l0,0c0,0-1.7,1.7-2.7,1.1l-5.6-2.3c-1.1-0.4-1.1-2.7-1.1-2.7l0,0c-0.6-4.4-4.4-7.8-8.9-7.8
					c-4.6,0-8.3,3.4-8.9,7.8h0c0,0,0,2.4-1.1,2.7L1830.8,4455.5z"/>
			</g>
		</g>
	</g>
	<g id="XMLID_39_">
		<path id="XMLID_47_" class="st0" d="M1937.5,3347.6h-21.3v-368.8h21.3c4.9,0,8.9-4,8.9-8.9c0-4.9-4-8.9-8.9-8.9v-184.8
			c4.9,0,8.9-4,8.9-8.9c0-4.9-4-8.9-8.9-8.9h-21.3v-192.4l2.3-17.1l6.6-16l10.5-13.7l13.7-10.5l16-6.6l17.1-2.3h452.3l1,0.7l0.9,0.8
			l0.9,0.9l0.8,1l0.7,1l0.6,1.1l0.5,1.2l0.4,1.2l0.2,1.2l0.1,29.5l0,1.2l-0.1,1.2l-0.2,1.4l0.9,6.6l2.5,6.2l4.1,5.3l5.3,4.1l6.2,2.6
			l6.6,0.9l6.6-0.9l6.2-2.6l5.3-4.1l2.2-2l2.4-1.7l2.6-1.4l2.7-1.1l2.8-0.8l2.9-0.5l3-0.2l3,0.2l2.9,0.5l2.9,0.8l2.8,1.1l2.6,1.4
			l5.9,4.5l6.8,2.8l7.3,1l7.3-1l6.8-2.8l5.9-4.5l2.4-2.2l2.7-1.9l2.9-1.5l3-1.2l3.2-0.8l3.2-0.4l3.3,0l3.2,0.4l3.2,0.8l3,1.2
			l2.9,1.5l2.7,1.9l7.3,5.6l8.6,3.5l9.2,1.2l9.2-1.2l8.6-3.5l7.3-5.6l2.8-2.4l3.1-1.9l3.4-1.4l3.6-0.9l3.7-0.3l3.7,0.3l3.6,0.8
			l3.4,1.4l3.2,1.9l2.8,2.4l2.4,2.8l2,3.1l7.3,5.6l8.6,3.5l9.2,1.2l9.2-1.2l8.6-3.5l7.3-5.6l5.6-7.3l3.5-8.6l1.2-37.4l0.5-1l0.6-0.9
			l0.7-0.9l0.7-0.8l0.8-0.7l0.9-0.7l0.9-0.6l1-0.5l1-0.4l1-0.3l1.1-0.2l1.1-0.1h447.7l17.1,2.3l16,6.6l13.7,10.5l10.5,13.7l6.6,16
			l2.3,17.1l0,1783.8l-2.3,17.1l-6.6,16l-10.5,13.7l-13.7,10.5l-16,6.6l-17.1,2.3h-447.7l-1.1-0.1l-1.1-0.2l-1-0.3l-1-0.4l-1-0.5
			l-0.9-0.6l-0.9-0.7l-0.8-0.7l-0.7-0.8l-0.7-0.9l-0.6-0.9l-0.5-1l-1.2-37.4l-3.5-8.6l-5.6-7.3l-7.3-5.6l-8.6-3.5l-9.2-1.2l-9.2,1.2
			l-8.6,3.5l-7.3,5.6l-2,3.1l-2.4,2.8l-2.8,2.4l-3.2,1.9l-3.4,1.4l-3.6,0.8l-3.7,0.3l-3.7-0.3l-3.6-0.9l-3.4-1.4l-3.1-1.9l-2.8-2.4
			l-7.3-5.6l-8.6-3.5l-9.2-1.2l-9.2,1.2l-8.6,3.5l-7.3,5.6l-2.7,1.9l-2.9,1.5l-3,1.2l-3.2,0.8l-3.2,0.4l-3.3,0l-3.2-0.4l-3.2-0.8
			l-3-1.2l-2.9-1.5l-2.7-1.8l-2.4-2.2l-5.9-4.5l-6.8-2.8l-7.3-1l-7.3,1l-6.8,2.8l-5.9,4.5l-2.6,1.4l-2.8,1.1l-2.9,0.8l-2.9,0.5
			l-3,0.1l-3-0.2l-2.9-0.5l-2.8-0.8l-2.7-1.1l-2.6-1.4l-2.4-1.7l-2.2-2l-5.3-4.1l-6.2-2.6l-6.6-0.9l-6.6,0.9l-6.2,2.6l-5.3,4.1
			l-4.1,5.3l-2.5,6.2l-0.9,6.6l0.2,1.4l0.1,1.2l0,1.2l-0.1,1.2l-0.2,29.5l-0.4,1.2l-0.5,1.2l-0.6,1.1l-0.7,1.1l-0.8,1l-0.9,0.9
			l-0.9,0.8l-1,0.7h-452.3l-17.1-2.3l-16-6.6l-13.7-10.5l-10.5-13.7l-6.6-16l-2.3-17.1v-192.1h21.3c4.9,0,8.9-4,8.9-8.9
			c0-4.9-4-8.9-8.9-8.9v-184.8c4.9,0,8.9-4,8.9-8.9c0-4.9-4-8.9-8.9-8.9h-21.3v-368.9h21.3c4.9,0,8.9-4,8.9-8.9c0-4.9-4-8.9-8.9-8.9
			v-184.8c4.9,0,8.9-4,8.9-8.9C1946.4,3351.6,1942.4,3347.6,1937.5,3347.6"/>
		<g id="XMLID_40_">
			<path id="XMLID_46_" class="st1" d="M2249.8,2847.3c0-4.9,4-8.9,8.9-8.9c4.9,0,8.9,4,8.9,8.9v42.5c0,4.9-4,8.9-8.9,8.9
				c-4.9,0-8.9-4-8.9-8.9H2065c0,4.9-4,8.9-8.9,8.9c-4.9,0-8.9-4-8.9-8.9v-42.5c0-4.9,4-8.9,8.9-8.9c4.9,0,8.9,4,8.9,8.9H2249.8z"/>
			<path id="XMLID_45_" class="st1" d="M2419.8,2960.9c4.9,0,8.9,4,8.9,8.9c0,4.9-4,8.9-8.9,8.9h-42.5c-4.9,0-8.9-4-8.9-8.9
				c0-4.9,4-8.9,8.9-8.9v-184.8c-4.9,0-8.9-4-8.9-8.9c0-4.9,4-8.9,8.9-8.9h42.5c4.9,0,8.9,4,8.9,8.9c0,4.9-4,8.9-8.9,8.9V2960.9z"/>
			<path id="XMLID_44_" class="st1" d="M2419.8,3549.8c4.9,0,8.9,4,8.9,8.9c0,4.9-4,8.9-8.9,8.9h-42.5c-4.9,0-8.9-4-8.9-8.9
				c0-4.9,4-8.9,8.9-8.9V3365c-4.9,0-8.9-4-8.9-8.9c0-4.9,4-8.9,8.9-8.9h42.5c4.9,0,8.9,4,8.9,8.9c0,4.9-4,8.9-8.9,8.9V3549.8z"/>
			<path id="XMLID_43_" class="st1" d="M2419.8,4139.8c4.9,0,8.9,4,8.9,8.9s-4,8.9-8.9,8.9h-42.5c-4.9,0-8.9-4-8.9-8.9
				s4-8.9,8.9-8.9V3955c-4.9,0-8.9-4-8.9-8.9c0-4.9,4-8.9,8.9-8.9h42.5c4.9,0,8.9,4,8.9,8.9c0,4.9-4,8.9-8.9,8.9V4139.8z"/>
			<path id="XMLID_42_" class="st1" d="M2249.8,3436.6c0-4.9,4-8.9,8.9-8.9c4.9,0,8.9,4,8.9,8.9v42.5c0,4.9-4,8.9-8.9,8.9
				c-4.9,0-8.9-4-8.9-8.9H2065c0,4.9-4,8.9-8.9,8.9c-4.9,0-8.9-4-8.9-8.9v-42.5c0-4.9,4-8.9,8.9-8.9c4.9,0,8.9,4,8.9,8.9H2249.8z"/>
			<path id="XMLID_41_" class="st1" d="M2249.8,4026c0-4.9,4-8.9,8.9-8.9c4.9,0,8.9,4,8.9,8.9v42.5c0,4.9-4,8.9-8.9,8.9
				c-4.9,0-8.9-4-8.9-8.9H2065c0,4.9-4,8.9-8.9,8.9c-4.9,0-8.9-4-8.9-8.9V4026c0-4.9,4-8.9,8.9-8.9c4.9,0,8.9,4,8.9,8.9H2249.8z"/>
		</g>
	</g>
</g>
<g id="XMLID_48_">
	<g id="XMLID_58_">
		<g id="XMLID_68_">
			<path id="XMLID_70_" class="st0" d="M2612.1,19.5v53c4.9,0,8.9,4,8.9,8.9c0,4.9-4,8.9-8.9,8.9h-42.5c-4.9,0-8.9-4-8.9-8.9
				c0-4.9,4-8.9,8.9-8.9v-53c0,0-89,0-89,0v21.3l2.8,0.4l2.6,1.1l2.2,1.7l1.7,2.2l1.1,2.6l0.4,2.8l-0.4,2.8l-1.1,2.6l-1.7,2.2
				l-2.2,1.7l-2.6,1.1l-2.8,0.4l-368.9,0l-2.8-0.4l-2.6-1.1l-2.2-1.7l-1.7-2.2l-1.1-2.6l-0.4-2.8l0.4-2.8l1.1-2.6l1.7-2.2l2.2-1.7
				l2.6-1.1l2.8-0.4V19.5l-89,0v53c4.9,0,8.9,4,8.9,8.9c0,4.9-4,8.9-8.9,8.9h-42.5c-4.9,0-8.9-4-8.9-8.9c0-4.9,4-8.9,8.9-8.9v-53
				l-89,0v21.3l2.8,0.4l2.6,1.1l2.2,1.7l1.7,2.2l1.1,2.6l0.4,2.8l-0.4,2.8l-1.1,2.6l-1.7,2.2l-2.2,1.7l-2.6,1.1l-2.8,0.4l-110,0
				l-21.8,28.3l-14.2,34.2l-4.8,36.7v1984.3l4.8,36.7l14.2,34.2l22.5,29.4l29.4,22.5l34.2,14.2l36.7,4.8h1417.3l36.7-4.8l34.2-14.2
				l29.4-22.5l22.5-29.4l14.2-34.2l4.8-36.7V161.3l-4.8-36.7l-14.2-34.2l-21.8-28.3h-110l-2.8-0.4l-2.6-1.1l-2.2-1.7l-1.7-2.2
				l-1.1-2.6l-0.4-2.8l0.4-2.8l1.1-2.6l1.7-2.2l2.2-1.7l2.6-1.1l2.8-0.4V19.5h-89v53c4.9,0,8.9,4,8.9,8.9c0,4.9-4,8.9-8.9,8.9H3159
				c-4.9,0-8.9-4-8.9-8.9c0-4.9,4-8.9,8.9-8.9l0-53h-89v21.3l2.8,0.4l2.6,1.1l2.2,1.7l1.7,2.2l1.1,2.6l0.4,2.8l-0.4,2.8l-1.1,2.6
				l-1.7,2.2l-2.2,1.7l-2.6,1.1l-2.8,0.4h-368.9l-2.8-0.4l-2.6-1.1l-2.2-1.7l-1.7-2.2l-1.1-2.6l-0.4-2.8l0.4-2.8l1.1-2.6l1.7-2.2
				l2.2-1.7l2.6-1.1l2.8-0.4V19.5H2612.1z"/>
			<g id="LINE_6_">
				<path id="XMLID_69_" class="st1" d="M3299.5,1174.6V2005c0,0,53,0,53,0c0-4.9,4-8.9,8.9-8.9c4.9,0,8.9,4,8.9,8.9v42.5
					c0,4.9-4,8.9-8.9,8.9c-4.9,0-8.9-4-8.9-8.9h-53l-3.1,23.8l-10,24.2l-16,20.8l-20.8,16l-24.2,10l-23.8,3.1v53
					c4.9,0,8.9,4,8.9,8.9c0,4.9-4,8.9-8.9,8.9H3159c-4.9,0-8.9-4-8.9-8.9c0-4.9,4-8.9,8.9-8.9v-53H2022.7v53c4.9,0,8.9,4,8.9,8.9
					c0,4.9-4,8.9-8.9,8.9h-42.5c-4.9,0-8.9-4-8.9-8.9c0-4.9,4-8.9,8.9-8.9v-53l-23.8-3.1l-24.2-10l-20.8-16l-16-20.8l-10-24.2
					l-3.1-23.8h-53c0,4.9-4,8.9-8.9,8.9s-8.9-4-8.9-8.9V2005c0-4.9,4-8.9,8.9-8.9s8.9,4,8.9,8.9h53v-830.4l-53,0
					c0,4.9-4,8.9-8.9,8.9s-8.9-4-8.9-8.9v-42.5c0-4.9,4-8.9,8.9-8.9s8.9,4,8.9,8.9h53V301.8h-53c0,4.9-4,8.9-8.9,8.9s-8.9-4-8.9-8.9
					v-42.5c0-4.9,4-8.9,8.9-8.9s8.9,4,8.9,8.9h53l3.1-23.8l10-24.2l16-20.8l20.8-16l24.2-10l23.8-3.1h1221.3l23.8,3.1l24.2,10
					l20.8,16l16,20.8l10,24.2l3.1,23.8l53,0c0-4.9,4-8.9,8.9-8.9c4.9,0,8.9,4,8.9,8.9v42.5c0,4.9-4,8.9-8.9,8.9
					c-4.9,0-8.9-4-8.9-8.9c0,0-53,0-53,0v830.4h53c0-4.9,4-8.9,8.9-8.9c4.9,0,8.9,4,8.9,8.9v42.5c0,4.9-4,8.9-8.9,8.9
					c-4.9,0-8.9-4-8.9-8.9H3299.5z"/>
			</g>
			<g id="LINE_5_">
			</g>
		</g>
		<g id="XMLID_59_">
			<g id="XMLID_66_">
				<path id="XMLID_67_" class="st1" d="M3319.3,95.8c-1,0.5-2.7-1.1-2.7-1.1l0,0c-3.5-2.7-8.6-2.4-11.8,0.8
					c-3.2,3.2-3.5,8.3-0.8,11.8l0,0c0,0,1.7,1.7,1.1,2.7l-2.3,5.6c-0.4,1.1-2.7,1.1-2.7,1.1l0,0c-4.4,0.6-7.8,4.4-7.8,8.9
					c0,4.6,3.4,8.3,7.8,8.9v0c0,0,2.4,0,2.7,1.1l2.3,5.6c0.5,1-1.1,2.7-1.1,2.7l0,0c-2.7,3.5-2.4,8.6,0.8,11.8
					c3.2,3.2,8.3,3.5,11.8,0.8l0,0c0,0,1.7-1.7,2.7-1.1l5.6,2.3c1.1,0.4,1.1,2.7,1.1,2.7l0,0c0.6,4.4,4.4,7.8,8.9,7.8
					c4.6,0,8.3-3.4,8.9-7.8l0,0c0,0,0-2.4,1.1-2.7l5.6-2.3c1-0.5,2.7,1.1,2.7,1.1l0,0c3.5,2.7,8.6,2.4,11.8-0.8
					c3.2-3.2,3.5-8.3,0.8-11.8l0,0c0,0-1.7-1.7-1.1-2.7l2.3-5.6c0.4-1.1,2.7-1.1,2.7-1.1l0,0c4.4-0.6,7.8-4.4,7.8-8.9
					c0-4.6-3.4-8.3-7.8-8.9v0c0,0-2.4,0-2.7-1.1l-2.3-5.6c-0.5-1,1.1-2.7,1.1-2.7l0,0c2.7-3.5,2.4-8.6-0.8-11.8
					c-3.2-3.2-8.3-3.5-11.8-0.8l0,0c0,0-1.7,1.7-2.7,1.1l-5.6-2.3c-1.1-0.4-1.1-2.7-1.1-2.7l0,0c-0.6-4.4-4.4-7.8-8.9-7.8
					c-4.6,0-8.3,3.4-8.9,7.8l0,0c0,0,0,2.4-1.1,2.7L3319.3,95.8z"/>
			</g>
			<g id="XMLID_64_">
				<path id="XMLID_65_" class="st1" d="M1830.8,95.8c-1,0.5-2.7-1.1-2.7-1.1l0,0c-3.5-2.7-8.6-2.4-11.8,0.8
					c-3.2,3.2-3.5,8.3-0.8,11.8l0,0c0,0,1.7,1.7,1.1,2.7l-2.3,5.6c-0.4,1.1-2.7,1.1-2.7,1.1l0,0c-4.4,0.6-7.8,4.4-7.8,8.9
					c0,4.6,3.4,8.3,7.8,8.9v0c0,0,2.4,0,2.7,1.1l2.3,5.6c0.5,1-1.1,2.7-1.1,2.7l0,0c-2.7,3.5-2.4,8.6,0.8,11.8
					c3.2,3.2,8.3,3.5,11.8,0.8l0,0c0,0,1.7-1.7,2.7-1.1l5.6,2.3c1.1,0.4,1.1,2.7,1.1,2.7l0,0c0.6,4.4,4.4,7.8,8.9,7.8
					c4.6,0,8.3-3.4,8.9-7.8l0,0c0,0,0-2.4,1.1-2.7l5.6-2.3c1-0.5,2.7,1.1,2.7,1.1l0,0c3.5,2.7,8.6,2.4,11.8-0.8
					c3.2-3.2,3.5-8.3,0.8-11.8l0,0c0,0-1.7-1.7-1.1-2.7l2.3-5.6c0.4-1.1,2.7-1.1,2.7-1.1l0,0c4.4-0.6,7.8-4.4,7.8-8.9
					c0-4.6-3.4-8.3-7.8-8.9l0,0c0,0-2.4,0-2.7-1.1l-2.3-5.6c-0.5-1,1.1-2.7,1.1-2.7l0,0c2.7-3.5,2.4-8.6-0.8-11.8
					c-3.2-3.2-8.3-3.5-11.8-0.8l0,0c0,0-1.7,1.7-2.7,1.1l-5.6-2.3c-1.1-0.4-1.1-2.7-1.1-2.7l0,0c-0.6-4.4-4.4-7.8-8.9-7.8
					c-4.6,0-8.3,3.4-8.9,7.8l0,0c0,0,0,2.4-1.1,2.7L1830.8,95.8z"/>
			</g>
			<g id="XMLID_62_">
				<path id="XMLID_63_" class="st1" d="M3319.3,2151.1c-1,0.5-2.7-1.1-2.7-1.1l0,0c-3.5-2.7-8.6-2.4-11.8,0.8
					c-3.2,3.2-3.5,8.3-0.8,11.8l0,0c0,0,1.7,1.7,1.1,2.7l-2.3,5.6c-0.4,1.1-2.7,1.1-2.7,1.1l0,0c-4.4,0.6-7.8,4.4-7.8,8.9
					c0,4.6,3.4,8.3,7.8,8.9v0c0,0,2.4,0,2.7,1.1l2.3,5.6c0.5,1-1.1,2.7-1.1,2.7l0,0c-2.7,3.5-2.4,8.6,0.8,11.8
					c3.2,3.2,8.3,3.5,11.8,0.8l0,0c0,0,1.7-1.7,2.7-1.1l5.6,2.3c1.1,0.4,1.1,2.7,1.1,2.7l0,0c0.6,4.4,4.4,7.8,8.9,7.8
					c4.6,0,8.3-3.4,8.9-7.8l0,0c0,0,0-2.4,1.1-2.7l5.6-2.3c1-0.5,2.7,1.1,2.7,1.1l0,0c3.5,2.7,8.6,2.4,11.8-0.8
					c3.2-3.2,3.5-8.3,0.8-11.8l0,0c0,0-1.7-1.7-1.1-2.7l2.3-5.6c0.4-1.1,2.7-1.1,2.7-1.1l0,0c4.4-0.6,7.8-4.4,7.8-8.9
					c0-4.6-3.4-8.3-7.8-8.9v0c0,0-2.4,0-2.7-1.1l-2.3-5.6c-0.5-1,1.1-2.7,1.1-2.7l0,0c2.7-3.5,2.4-8.6-0.8-11.8
					c-3.2-3.2-8.3-3.5-11.8-0.8l0,0c0,0-1.7,1.7-2.7,1.1l-5.6-2.3c-1.1-0.4-1.1-2.7-1.1-2.7l0,0c-0.6-4.4-4.4-7.8-8.9-7.8
					c-4.6,0-8.3,3.4-8.9,7.8h0c0,0,0,2.4-1.1,2.7L3319.3,2151.1z"/>
			</g>
			<g id="XMLID_60_">
				<path id="XMLID_61_" class="st1" d="M1830.8,2151.1c-1,0.5-2.7-1.1-2.7-1.1l0,0c-3.5-2.7-8.6-2.4-11.8,0.8
					c-3.2,3.2-3.5,8.3-0.8,11.8l0,0c0,0,1.7,1.7,1.1,2.7l-2.3,5.6c-0.4,1.1-2.7,1.1-2.7,1.1l0,0c-4.4,0.6-7.8,4.4-7.8,8.9
					c0,4.6,3.4,8.3,7.8,8.9v0c0,0,2.4,0,2.7,1.1l2.3,5.6c0.5,1-1.1,2.7-1.1,2.7l0,0c-2.7,3.5-2.4,8.6,0.8,11.8
					c3.2,3.2,8.3,3.5,11.8,0.8l0,0c0,0,1.7-1.7,2.7-1.1l5.6,2.3c1.1,0.4,1.1,2.7,1.1,2.7l0,0c0.6,4.4,4.4,7.8,8.9,7.8
					c4.6,0,8.3-3.4,8.9-7.8l0,0c0,0,0-2.4,1.1-2.7l5.6-2.3c1-0.5,2.7,1.1,2.7,1.1l0,0c3.5,2.7,8.6,2.4,11.8-0.8
					c3.2-3.2,3.5-8.3,0.8-11.8l0,0c0,0-1.7-1.7-1.1-2.7l2.3-5.6c0.4-1.1,2.7-1.1,2.7-1.1l0,0c4.4-0.6,7.8-4.4,7.8-8.9
					c0-4.6-3.4-8.3-7.8-8.9l0,0c0,0-2.4,0-2.7-1.1l-2.3-5.6c-0.5-1,1.1-2.7,1.1-2.7l0,0c2.7-3.5,2.4-8.6-0.8-11.8
					c-3.2-3.2-8.3-3.5-11.8-0.8l0,0c0,0-1.7,1.7-2.7,1.1l-5.6-2.3c-1.1-0.4-1.1-2.7-1.1-2.7l0,0c-0.6-4.4-4.4-7.8-8.9-7.8
					c-4.6,0-8.3,3.4-8.9,7.8h0c0,0,0,2.4-1.1,2.7L1830.8,2151.1z"/>
			</g>
		</g>
	</g>
	<g id="XMLID_49_">
		<path id="XMLID_57_" class="st0" d="M1937.5,1043.2h-21.3V674.4h21.3c4.9,0,8.9-4,8.9-8.9s-4-8.9-8.9-8.9V471.7
			c4.9,0,8.9-4,8.9-8.9c0-4.9-4-8.9-8.9-8.9h-21.3V261.5l2.3-17.1l6.6-16l10.5-13.7l13.7-10.5l16-6.6l17.1-2.3h452.3l1,0.7l0.9,0.8
			l0.9,0.9l0.8,1l0.7,1l0.6,1.1l0.5,1.2l0.4,1.2l0.2,1.2l0.1,29.5l0,1.2l-0.1,1.2l-0.2,1.4l0.9,6.6l2.5,6.2l4.1,5.3l5.3,4.1l6.2,2.6
			l6.6,0.9l6.6-0.9l6.2-2.6l5.3-4.1l2.2-2l2.4-1.7l2.6-1.4l2.7-1.1l2.8-0.8l2.9-0.5l3-0.2l3,0.2l2.9,0.5l2.9,0.8l2.8,1.1l2.6,1.4
			l5.9,4.5l6.8,2.8l7.3,1l7.3-1l6.8-2.8l5.9-4.5l2.4-2.2l2.7-1.9l2.9-1.5l3-1.2l3.2-0.8l3.2-0.4l3.3,0l3.2,0.4l3.2,0.8l3,1.2
			l2.9,1.5l2.7,1.9l7.3,5.6l8.6,3.5l9.2,1.2l9.2-1.2l8.6-3.5l7.3-5.6l2.8-2.4l3.1-1.9l3.4-1.4l3.6-0.9l3.7-0.3l3.7,0.3l3.6,0.8
			l3.4,1.4l3.2,1.9l2.8,2.4l2.4,2.8l2,3.1l7.3,5.6l8.6,3.5l9.2,1.2l9.2-1.2l8.6-3.5l7.3-5.6l5.6-7.3l3.5-8.6l1.2-37.4l0.5-1l0.6-0.9
			l0.7-0.9l0.7-0.8l0.8-0.7l0.9-0.7l0.9-0.6l1-0.5l1-0.4l1-0.3l1.1-0.2l1.1-0.1h447.7l17.1,2.3l16,6.6l13.7,10.5l10.5,13.7l6.6,16
			l2.3,17.1l0,1783.8l-2.3,17.1l-6.6,16l-10.5,13.7l-13.7,10.5l-16,6.6l-17.1,2.3h-447.7l-1.1-0.1l-1.1-0.2l-1-0.3l-1-0.4l-1-0.5
			l-0.9-0.6l-0.9-0.7l-0.8-0.7l-0.7-0.8l-0.7-0.9l-0.6-0.9l-0.5-1l-1.2-37.4l-3.5-8.6l-5.6-7.3l-7.3-5.6l-8.6-3.5l-9.2-1.2l-9.2,1.2
			l-8.6,3.5l-7.3,5.6l-2,3.1l-2.4,2.8l-2.8,2.4l-3.2,1.9l-3.4,1.4l-3.6,0.8l-3.7,0.3l-3.7-0.3l-3.6-0.9l-3.4-1.4l-3.1-1.9l-2.8-2.4
			l-7.3-5.6l-8.6-3.5l-9.2-1.2l-9.2,1.2l-8.6,3.5l-7.3,5.6l-2.7,1.9l-2.9,1.5l-3,1.2l-3.2,0.8l-3.2,0.4l-3.3,0l-3.2-0.4l-3.2-0.8
			l-3-1.2l-2.9-1.5l-2.7-1.8l-2.4-2.2l-5.9-4.5l-6.8-2.8l-7.3-1l-7.3,1l-6.8,2.8l-5.9,4.5l-2.6,1.4l-2.8,1.1l-2.9,0.8l-2.9,0.5
			l-3,0.1l-3-0.2l-2.9-0.5l-2.8-0.8l-2.7-1.1l-2.6-1.4l-2.4-1.7l-2.2-2l-5.3-4.1l-6.2-2.6l-6.6-0.9l-6.6,0.9l-6.2,2.6l-5.3,4.1
			l-4.1,5.3l-2.5,6.2l-0.9,6.6l0.2,1.4l0.1,1.2l0,1.2l-0.1,1.2l-0.2,29.5l-0.4,1.2l-0.5,1.2l-0.6,1.1l-0.7,1.1l-0.8,1l-0.9,0.9
			l-0.9,0.8l-1,0.7h-452.3l-17.1-2.3l-16-6.6l-13.7-10.5l-10.5-13.7l-6.6-16l-2.3-17.1v-192.1h21.3c4.9,0,8.9-4,8.9-8.9
			s-4-8.9-8.9-8.9v-184.8c4.9,0,8.9-4,8.9-8.9s-4-8.9-8.9-8.9h-21.3v-368.9h21.3c4.9,0,8.9-4,8.9-8.9s-4-8.9-8.9-8.9v-184.8
			c4.9,0,8.9-4,8.9-8.9S1942.4,1043.2,1937.5,1043.2"/>
		<g id="XMLID_50_">
			<path id="XMLID_56_" class="st1" d="M2249.8,542.9c0-4.9,4-8.9,8.9-8.9c4.9,0,8.9,4,8.9,8.9v42.5c0,4.9-4,8.9-8.9,8.9
				c-4.9,0-8.9-4-8.9-8.9H2065c0,4.9-4,8.9-8.9,8.9c-4.9,0-8.9-4-8.9-8.9v-42.5c0-4.9,4-8.9,8.9-8.9c4.9,0,8.9,4,8.9,8.9
				L2249.8,542.9z"/>
			<path id="XMLID_55_" class="st1" d="M2419.8,656.6c4.9,0,8.9,4,8.9,8.9s-4,8.9-8.9,8.9h-42.5c-4.9,0-8.9-4-8.9-8.9s4-8.9,8.9-8.9
				V471.8c-4.9,0-8.9-4-8.9-8.9s4-8.9,8.9-8.9h42.5c4.9,0,8.9,4,8.9,8.9s-4,8.9-8.9,8.9V656.6z"/>
			<path id="XMLID_54_" class="st1" d="M2419.8,1245.5c4.9,0,8.9,4,8.9,8.9s-4,8.9-8.9,8.9h-42.5c-4.9,0-8.9-4-8.9-8.9
				s4-8.9,8.9-8.9v-184.8c-4.9,0-8.9-4-8.9-8.9s4-8.9,8.9-8.9h42.5c4.9,0,8.9,4,8.9,8.9s-4,8.9-8.9,8.9V1245.5z"/>
			<path id="XMLID_53_" class="st1" d="M2419.8,1835.4c4.9,0,8.9,4,8.9,8.9s-4,8.9-8.9,8.9h-42.5c-4.9,0-8.9-4-8.9-8.9
				s4-8.9,8.9-8.9v-184.8c-4.9,0-8.9-4-8.9-8.9s4-8.9,8.9-8.9h42.5c4.9,0,8.9,4,8.9,8.9s-4,8.9-8.9,8.9V1835.4z"/>
			<path id="XMLID_52_" class="st1" d="M2249.8,1132.3c0-4.9,4-8.9,8.9-8.9c4.9,0,8.9,4,8.9,8.9v42.5c0,4.9-4,8.9-8.9,8.9
				c-4.9,0-8.9-4-8.9-8.9H2065c0,4.9-4,8.9-8.9,8.9c-4.9,0-8.9-4-8.9-8.9v-42.5c0-4.9,4-8.9,8.9-8.9c4.9,0,8.9,4,8.9,8.9H2249.8z"/>
			<path id="XMLID_51_" class="st1" d="M2249.8,1721.6c0-4.9,4-8.9,8.9-8.9c4.9,0,8.9,4,8.9,8.9v42.5c0,4.9-4,8.9-8.9,8.9
				c-4.9,0-8.9-4-8.9-8.9H2065c0,4.9-4,8.9-8.9,8.9c-4.9,0-8.9-4-8.9-8.9v-42.5c0-4.9,4-8.9,8.9-8.9c4.9,0,8.9,4,8.9,8.9H2249.8z"/>
		</g>
	</g>
</g>
<g id="XMLID_118_">
	<path id="XMLID_140_" class="st0" d="M886.7,4629v53c4.9,0,8.9,4,8.9,8.9c0,4.9-4,8.9-8.9,8.9h-42.5c-4.9,0-8.9-4-8.9-8.9
		c0-4.9,4-8.9,8.9-8.9v-53h-89v21.3l2.8,0.4l2.6,1.1l2.2,1.7l1.7,2.2l1.1,2.6l0.4,2.8l-0.4,2.8l-1.1,2.6l-1.7,2.2l-2.2,1.7l-2.6,1.1
		l-2.8,0.4l-368.9,0l-2.8-0.4l-2.6-1.1l-2.2-1.7l-1.7-2.2l-1.1-2.6l-0.4-2.8l0.4-2.8l1.1-2.6l1.7-2.2l2.2-1.7l2.6-1.1l2.8-0.4V4629
		l-89,0v53c4.9,0,8.9,4,8.9,8.9c0,4.9-4,8.9-8.9,8.9h-42.5c-4.9,0-8.9-4-8.9-8.9c0-4.9,4-8.9,8.9-8.9v-53l-89,0v21.3l2.8,0.4
		l2.6,1.1l2.2,1.7l1.7,2.2l1.1,2.6l0.4,2.8l-0.4,2.8l-1.1,2.6l-1.7,2.2l-2.2,1.7l-2.6,1.1l-2.8,0.4l-110,0L34,4699.8L19.8,4734
		l-4.8,36.7V6755l4.8,36.7l14.2,34.2l22.5,29.4l29.4,22.5l34.2,14.2l36.7,4.8h1417.3l36.7-4.8l34.2-14.2l29.4-22.5l22.5-29.4
		l14.2-34.2l4.8-36.7V4770.7l-4.8-36.7l-14.2-34.2l-21.8-28.3h-110l-2.8-0.4l-2.6-1.1l-2.2-1.7l-1.7-2.2l-1.1-2.6l-0.4-2.8l0.4-2.8
		l1.1-2.6l1.7-2.2l2.2-1.7l2.6-1.1l2.8-0.4V4629h-89v53c4.9,0,8.9,4,8.9,8.9c0,4.9-4,8.9-8.9,8.9h-42.5c-4.9,0-8.9-4-8.9-8.9
		c0-4.9,4-8.9,8.9-8.9c0,0,0-53,0-53h-89v21.3l2.8,0.4l2.6,1.1l2.2,1.7l1.7,2.2l1.1,2.6l0.4,2.8l-0.4,2.8l-1.1,2.6l-1.7,2.2
		l-2.2,1.7l-2.6,1.1l-2.8,0.4H975.7l-2.8-0.4l-2.6-1.1l-2.2-1.7l-1.7-2.2l-1.1-2.6l-0.4-2.8l0.4-2.8l1.1-2.6l1.7-2.2l2.2-1.7
		l2.6-1.1l2.8-0.4V4629H886.7z"/>
	<g id="XMLID_139_">
		<g id="LINE_18_">
		</g>
	</g>
	<g id="XMLID_119_">
		<g id="LINE_17_">
			<polygon id="XMLID_138_" class="st1" points="533.4,5552.5 531,5549.7 529,5546.6 521.7,5541 513.1,5537.5 504,5536.2 
				494.8,5537.5 486.2,5541 478.9,5546.6 473.3,5554 469.7,5562.5 468.5,5571.7 468.5,5585.9 469.7,5595 473.3,5603.6 478.9,5610.9 
				486.2,5616.5 494.8,5620.1 504,5621.3 513.1,5620.1 521.7,5616.5 529,5610.9 531,5607.8 533.4,5605 536.3,5602.7 539.4,5600.8 
				542.9,5599.4 546.5,5598.6 550.2,5598.3 553.8,5598.6 557.4,5599.5 560.8,5600.9 564,5602.8 566.8,5605.2 574.1,5610.9 
				582.7,5614.4 591.8,5615.6 601,5614.4 609.6,5610.9 616.9,5605.2 619.6,5603.4 622.4,5601.9 625.5,5600.7 628.6,5599.9 
				631.9,5599.5 635.1,5599.5 638.4,5599.9 641.5,5600.6 644.6,5601.8 647.5,5603.3 650.1,5605.2 652.6,5607.3 658.5,5611.8 
				665.3,5614.7 672.6,5615.6 680,5614.7 686.8,5611.8 692.7,5607.3 695.3,5605.9 698,5604.8 700.9,5604 703.8,5603.5 706.8,5603.4 
				709.7,5603.6 712.6,5604.1 715.5,5604.9 718.2,5606 720.8,5607.4 723.2,5609.1 725.5,5611.1 730.7,5615.2 736.9,5617.7 
				743.5,5618.6 750.1,5617.7 758.3,5614.5 765.6,5609.6 771.6,5603.3 776.2,5595.8 779,5587.5 780,5578.8 779,5570 776.2,5561.7 
				771.6,5554.2 765.6,5547.9 758.3,5543 750.1,5539.8 743.5,5539 736.9,5539.8 730.7,5542.4 725.5,5546.4 723.2,5548.4 
				720.8,5550.1 718.2,5551.5 715.5,5552.6 712.6,5553.5 709.7,5554 706.8,5554.1 703.8,5554 700.9,5553.5 698,5552.7 695.3,5551.6 
				692.7,5550.2 686.8,5545.7 680,5542.9 672.6,5541.9 665.3,5542.9 658.5,5545.7 652.6,5550.2 650.1,5552.4 647.5,5554.2 
				644.6,5555.7 641.5,5556.9 638.4,5557.7 635.1,5558 631.9,5558 628.6,5557.6 625.5,5556.9 622.4,5555.7 619.6,5554.2 
				616.9,5552.3 609.6,5546.7 601,5543.1 591.8,5541.9 582.7,5543.1 574.1,5546.7 566.8,5552.3 564,5554.7 560.8,5556.6 
				557.4,5558.1 553.8,5558.9 550.2,5559.2 546.5,5559 542.9,5558.2 539.4,5556.8 536.3,5554.9 			"/>
		</g>
		<g id="LINE_16_">
			<polygon id="XMLID_137_" class="st1" points="1194.5,5554.9 1191.3,5556.8 1187.9,5558.2 1184.3,5559 1180.6,5559.2 
				1176.9,5558.9 1173.4,5558.1 1170,5556.6 1166.8,5554.7 1164,5552.3 1156.7,5546.7 1148.1,5543.1 1138.9,5541.9 1129.8,5543.1 
				1121.2,5546.7 1113.9,5552.3 1111.2,5554.2 1108.3,5555.7 1105.3,5556.9 1102.1,5557.6 1098.9,5558 1095.7,5558 1092.4,5557.7 
				1089.3,5556.9 1086.2,5555.7 1083.3,5554.2 1080.6,5552.4 1078.2,5550.2 1072.3,5545.7 1065.5,5542.9 1058.2,5541.9 
				1050.8,5542.9 1044,5545.7 1038.1,5550.2 1035.5,5551.6 1032.8,5552.7 1029.9,5553.5 1027,5554 1024,5554.1 1021.1,5554 
				1018.2,5553.5 1015.3,5552.6 1012.6,5551.5 1010,5550.1 1007.6,5548.4 1005.3,5546.4 1000,5542.4 993.9,5539.8 987.3,5539 
				980.7,5539.8 972.5,5543 965.2,5547.9 959.1,5554.2 954.6,5561.7 951.8,5570 950.8,5578.8 951.8,5587.5 954.6,5595.8 
				959.1,5603.3 965.2,5609.6 972.5,5614.5 980.7,5617.7 987.3,5618.6 993.9,5617.7 1000,5615.2 1005.3,5611.1 1007.6,5609.1 
				1010,5607.4 1012.6,5606 1015.3,5604.9 1018.2,5604.1 1021.1,5603.6 1024,5603.4 1027,5603.5 1029.9,5604 1032.8,5604.8 
				1035.5,5605.9 1038.1,5607.3 1044,5611.8 1050.8,5614.7 1058.2,5615.6 1065.5,5614.7 1072.3,5611.8 1078.2,5607.3 1080.6,5605.2 
				1083.3,5603.3 1086.2,5601.8 1089.3,5600.6 1092.4,5599.9 1095.7,5599.5 1098.9,5599.5 1102.1,5599.9 1105.3,5600.7 
				1108.3,5601.9 1111.2,5603.4 1113.9,5605.2 1121.2,5610.9 1129.8,5614.4 1138.9,5615.6 1148.1,5614.4 1156.7,5610.9 1164,5605.2 
				1166.8,5602.8 1170,5600.9 1173.4,5599.5 1176.9,5598.6 1180.6,5598.3 1184.3,5598.6 1187.9,5599.4 1191.3,5600.8 1194.5,5602.7 
				1197.3,5605 1199.8,5607.8 1201.8,5610.9 1209.1,5616.5 1217.7,5620.1 1226.8,5621.3 1236,5620.1 1244.5,5616.5 1251.9,5610.9 
				1257.5,5603.6 1261,5595 1262.3,5585.9 1262.3,5571.7 1261,5562.5 1257.5,5554 1251.9,5546.6 1244.5,5541 1236,5537.5 
				1226.8,5536.2 1217.7,5537.5 1209.1,5541 1201.8,5546.6 1199.8,5549.7 1197.3,5552.5 			"/>
		</g>
		<g id="LINE_15_">
			<polygon id="XMLID_136_" class="st1" points="533.4,5728.3 531,5725.5 529,5722.4 521.7,5716.7 513.1,5713.2 504,5712 
				494.8,5713.2 486.2,5716.7 478.9,5722.4 473.3,5729.7 469.7,5738.3 468.5,5747.4 468.5,5761.6 469.7,5770.8 473.3,5779.3 
				478.9,5786.7 486.2,5792.3 494.8,5795.8 504,5797 513.1,5795.8 521.7,5792.3 529,5786.7 531,5783.5 533.4,5780.8 536.3,5778.4 
				539.4,5776.5 542.9,5775.1 546.5,5774.3 550.2,5774 553.8,5774.3 557.4,5775.2 560.8,5776.7 564,5778.6 566.8,5781 574.1,5786.6 
				582.7,5790.2 591.8,5791.4 601,5790.2 609.6,5786.6 616.9,5781 619.6,5779.1 622.4,5777.6 625.5,5776.4 628.6,5775.6 
				631.9,5775.2 635.1,5775.2 638.4,5775.6 641.5,5776.4 644.6,5777.5 647.5,5779.1 650.1,5780.9 652.6,5783.1 658.5,5787.6 
				665.3,5790.4 672.6,5791.4 680,5790.4 686.8,5787.6 692.7,5783.1 695.3,5781.7 698,5780.6 700.9,5779.8 703.8,5779.3 
				706.8,5779.1 709.7,5779.3 712.6,5779.8 715.5,5780.6 718.2,5781.8 720.8,5783.2 723.2,5784.9 725.5,5786.8 730.7,5790.9 
				736.9,5793.5 743.5,5794.3 750.1,5793.5 758.3,5790.3 765.6,5785.4 771.6,5779.1 776.2,5771.6 779,5763.2 780,5754.5 779,5745.8 
				776.2,5737.5 771.6,5730 765.6,5723.6 758.3,5718.8 750.1,5715.6 743.5,5714.7 736.9,5715.6 730.7,5718.1 725.5,5722.2 
				723.2,5724.1 720.8,5725.8 718.2,5727.3 715.5,5728.4 712.6,5729.2 709.7,5729.7 706.8,5729.9 703.8,5729.7 700.9,5729.3 
				698,5728.5 695.3,5727.4 692.7,5726 686.8,5721.5 680,5718.6 672.6,5717.7 665.3,5718.6 658.5,5721.5 652.6,5726 650.1,5728.1 
				647.5,5730 644.6,5731.5 641.5,5732.6 638.4,5733.4 635.1,5733.8 631.9,5733.8 628.6,5733.4 625.5,5732.6 622.4,5731.4 
				619.6,5729.9 616.9,5728 609.6,5722.4 601,5718.9 591.8,5717.7 582.7,5718.9 574.1,5722.4 566.8,5728 564,5730.4 560.8,5732.4 
				557.4,5733.8 553.8,5734.7 550.2,5735 546.5,5734.7 542.9,5733.9 539.4,5732.5 536.3,5730.6 			"/>
		</g>
		<g id="LINE_14_">
			<polygon id="XMLID_135_" class="st1" points="1194.5,5730.6 1191.3,5732.5 1187.9,5733.9 1184.3,5734.7 1180.6,5735 
				1176.9,5734.7 1173.4,5733.8 1170,5732.4 1166.8,5730.4 1164,5728 1156.7,5722.4 1148.1,5718.9 1138.9,5717.7 1129.8,5718.9 
				1121.2,5722.4 1113.9,5728 1111.2,5729.9 1108.3,5731.4 1105.3,5732.6 1102.1,5733.4 1098.9,5733.8 1095.7,5733.8 1092.4,5733.4 
				1089.3,5732.6 1086.2,5731.5 1083.3,5730 1080.6,5728.1 1078.2,5726 1072.3,5721.5 1065.5,5718.6 1058.2,5717.7 1050.8,5718.6 
				1044,5721.5 1038.1,5726 1035.5,5727.4 1032.8,5728.5 1029.9,5729.3 1027,5729.7 1024,5729.9 1021.1,5729.7 1018.2,5729.2 
				1015.3,5728.4 1012.6,5727.3 1010,5725.8 1007.6,5724.1 1005.3,5722.2 1000,5718.1 993.9,5715.6 987.3,5714.7 980.7,5715.6 
				972.5,5718.8 965.2,5723.6 959.1,5730 954.6,5737.5 951.8,5745.8 950.8,5754.5 951.8,5763.2 954.6,5771.6 959.1,5779.1 
				965.2,5785.4 972.5,5790.3 980.7,5793.5 987.3,5794.3 993.9,5793.5 1000,5790.9 1005.3,5786.8 1007.6,5784.9 1010,5783.2 
				1012.6,5781.8 1015.3,5780.6 1018.2,5779.8 1021.1,5779.3 1024,5779.1 1027,5779.3 1029.9,5779.8 1032.8,5780.6 1035.5,5781.7 
				1038.1,5783.1 1044,5787.6 1050.8,5790.4 1058.2,5791.4 1065.5,5790.4 1072.3,5787.6 1078.2,5783.1 1080.6,5780.9 1083.3,5779.1 
				1086.2,5777.5 1089.3,5776.4 1092.4,5775.6 1095.7,5775.2 1098.9,5775.2 1102.1,5775.6 1105.3,5776.4 1108.3,5777.6 
				1111.2,5779.1 1113.9,5781 1121.2,5786.6 1129.8,5790.2 1138.9,5791.4 1148.1,5790.2 1156.7,5786.6 1164,5781 1166.8,5778.6 
				1170,5776.7 1173.4,5775.2 1176.9,5774.3 1180.6,5774 1184.3,5774.3 1187.9,5775.1 1191.3,5776.5 1194.5,5778.4 1197.3,5780.8 
				1199.8,5783.5 1201.8,5786.7 1209.1,5792.3 1217.7,5795.8 1226.8,5797 1236,5795.8 1244.5,5792.3 1251.9,5786.7 1257.5,5779.3 
				1261,5770.8 1262.3,5761.6 1262.3,5747.4 1261,5738.3 1257.5,5729.7 1251.9,5722.4 1244.5,5716.7 1236,5713.2 1226.8,5712 
				1217.7,5713.2 1209.1,5716.7 1201.8,5722.4 1199.8,5725.5 1197.3,5728.3 			"/>
		</g>
		<path id="XMLID_134_" class="st1" d="M886.7,6562.2h199.9c9.4,0,8.4-7.6,8.4-17c0-9.4,0.9-17-8.4-17H644.3c-9.4,0-9,7.6-9,17
			c0,9.4-0.4,17,9,17h199.9"/>
		<path id="XMLID_133_" class="st1" d="M644.3,6755c-9.4,0-9-16.1-9-25.5c0-9.4-1.4-25.5,8-25.5h440.9c9.4,0,7.8,16.1,7.8,25.5
			c0,9.4,1.6,25.5-7.8,25.5l-5,0H642.3"/>
		<path id="XMLID_132_" class="st1" d="M886.7,4847.2c29.6,0,99.6,0,99.6,0l2.8-0.4l2.6-1.1l2.2-1.7l1.7-2.2l1.1-2.6l0.4-2.8
			l-0.4-2.8l-1.1-2.6l-1.7-2.2l-2.2-1.7l-2.6-1.1l-2.8-0.4v-21.3h100.3c9.4,0,8.4-7.6,8.4-17c0-9.4,0.9-17-8.4-17H643.3h1
			c-9.4,0-9,7.6-9,17c0,9.4-0.4,17,9,17h90.2v21.3l-2.8,0.4l-2.6,1.1l-2.2,1.7l-1.7,2.2l-1.1,2.6l-0.4,2.8l0.4,2.8l1.1,2.6l1.7,2.2
			l2.2,1.7l2.6,1.1l2.8,0.4h109.6l1.8-0.2l1.7-0.7l1.5-1.1l1.1-1.5l0.7-1.7l0.2-1.8l-0.2-1.8l-0.7-1.7l-1.1-1.5l-1.5-1.1l-1.7-0.7
			l-1.8-0.2c0,0,0-29.1,0-29.1h42.5v29.1l-1.8,0.2l-1.7,0.7l-1.5,1.1l-1.1,1.5l-0.7,1.7l-0.2,1.8l0.2,1.8l0.7,1.7l1.1,1.5l1.5,1.1
			l1.7,0.7L886.7,4847.2z"/>
		<path id="XMLID_131_" class="st1" d="M886.7,5023c29.6,0,99.6,0,99.6,0l2.8-0.4l2.6-1.1l2.2-1.7l1.7-2.2l1.1-2.6l0.4-2.8l-0.4-2.8
			l-1.1-2.6l-1.7-2.2l-2.2-1.7l-2.6-1.1l-2.8-0.4v-21.3h100.3c9.4,0,8.4-7.6,8.4-17s0.9-17-8.4-17H886.7l0-56.7l1.8-0.2l1.7-0.7
			l1.5-1.1l1.1-1.5l0.7-1.7l0.2-1.8l-0.2-1.8l-0.7-1.7l-1.1-1.5l-1.5-1.1l-1.7-0.7l-1.8-0.2h-42.5l-1.8,0.2l-1.7,0.7l-1.5,1.1
			l-1.1,1.5l-0.7,1.7l-0.2,1.8l0.2,1.8l0.7,1.7l1.1,1.5l1.5,1.1l1.7,0.7l1.8,0.2l0,56.7H643.3h1c-9.4,0-9,7.6-9,17s-0.4,17,9,17
			h90.2v21.3l-2.8,0.4l-2.6,1.1l-2.2,1.7l-1.7,2.2l-1.1,2.6l-0.4,2.8l0.4,2.8l1.1,2.6l1.7,2.2l2.2,1.7l2.6,1.1l2.8,0.4h109.6
			l1.8-0.2l1.7-0.7l1.5-1.1l1.1-1.5l0.7-1.7l0.2-1.8l-0.2-1.8l-0.7-1.7l-1.1-1.5l-1.5-1.1l-1.7-0.7l-1.8-0.2c0,0,0-29.1,0-29.1h42.5
			v29.1l-1.8,0.2l-1.7,0.7l-1.5,1.1l-1.1,1.5l-0.7,1.7l-0.2,1.8l0.2,1.8l0.7,1.7l1.1,1.5l1.5,1.1l1.7,0.7L886.7,5023z"/>
		<path id="XMLID_130_" class="st1" d="M886.7,5198.7c29.6,0,99.6,0,99.6,0l2.8-0.4l2.6-1.1l2.2-1.7l1.7-2.2l1.1-2.6l0.4-2.8
			l-0.4-2.8l-1.1-2.6l-1.7-2.2l-2.2-1.7l-2.6-1.1l-2.8-0.4v-21.3h100.3c9.4,0,8.4-7.6,8.4-17s0.9-17-8.4-17H886.7l0-56.7l1.8-0.2
			l1.7-0.7l1.5-1.1l1.1-1.5l0.7-1.7l0.2-1.8l-0.2-1.8l-0.7-1.7l-1.1-1.5l-1.5-1.1l-1.7-0.7l-1.8-0.2h-42.5l-1.8,0.2l-1.7,0.7
			l-1.5,1.1l-1.1,1.5l-0.7,1.7l-0.2,1.8l0.2,1.8l0.7,1.7l1.1,1.5l1.5,1.1l1.7,0.7l1.8,0.2l0,56.7H643.3h1c-9.4,0-9,7.6-9,17
			s-0.4,17,9,17h90.2v21.3l-2.8,0.4l-2.6,1.1l-2.2,1.7l-1.7,2.2l-1.1,2.6l-0.4,2.8l0.4,2.8l1.1,2.6l1.7,2.2l2.2,1.7l2.6,1.1l2.8,0.4
			h109.6l1.8-0.2l1.7-0.7l1.5-1.1l1.1-1.5l0.7-1.7l0.2-1.8l-0.2-1.8l-0.7-1.7l-1.1-1.5l-1.5-1.1l-1.7-0.7l-1.8-0.2
			c0,0,0-29.1,0-29.1h42.5v29.1l-1.8,0.2l-1.7,0.7l-1.5,1.1l-1.1,1.5l-0.7,1.7l-0.2,1.8l0.2,1.8l0.7,1.7l1.1,1.5l1.5,1.1l1.7,0.7
			L886.7,5198.7z"/>
		<path id="XMLID_129_" class="st1" d="M886.7,5332v53c4.9,0,8.9,4,8.9,8.9c0,4.9-4,8.9-8.9,8.9h-42.5c-4.9,0-8.9-4-8.9-8.9
			c0-4.9,4-8.9,8.9-8.9v-53H644.3c-9.4,0-9-7.6-9-17s-0.4-17,9-17h199.9l0-56.7h0l-1.8-0.2l-1.7-0.7l-1.5-1.1l-1.1-1.5l-0.7-1.7
			l-0.2-1.8l0.2-1.8l0.7-1.7l1.1-1.5l1.5-1.1l1.7-0.7l1.8-0.2h42.5l1.8,0.2l1.7,0.7l1.5,1.1l1.1,1.5l0.7,1.7l0.2,1.8l-0.2,1.8
			l-0.7,1.7l-1.1,1.5l-1.5,1.1l-1.7,0.7l-1.8,0.2c0,0,0,56.7,0,56.7h199.9c9.4,0,8.4,7.6,8.4,17s0.9,17-8.4,17H886.7"/>
		<path id="XMLID_128_" class="st1" d="M886.7,5507.7v53c4.9,0,8.9,4,8.9,8.9c0,4.9-4,8.9-8.9,8.9h-42.5c-4.9,0-8.9-4-8.9-8.9
			c0-4.9,4-8.9,8.9-8.9v-53H644.3c-9.4,0-9-7.6-9-17c0-9.4-0.4-17,9-17h442.3c9.4,0,8.4,7.6,8.4,17c0,9.4,0.9,17-8.4,17H886.7"/>
		<path id="XMLID_127_" class="st1" d="M886.7,5683.5v53c4.9,0,8.9,4,8.9,8.9c0,4.9-4,8.9-8.9,8.9h-42.5c-4.9,0-8.9-4-8.9-8.9
			c0-4.9,4-8.9,8.9-8.9v-53H644.3c-9.4,0-9-7.6-9-17c0-9.4-0.4-17,9-17h442.3c9.4,0,8.4,7.6,8.4,17c0,9.4,0.9,17-8.4,17
			L886.7,5683.5"/>
		<path id="XMLID_126_" class="st1" d="M886.7,5859.2v53c4.9,0,8.9,4,8.9,8.9c0,4.9-4,8.9-8.9,8.9h-42.5c-4.9,0-8.9-4-8.9-8.9
			c0-4.9,4-8.9,8.9-8.9v-53H644.3c-9.4,0-9-7.6-9-17c0-9.4-0.4-17,9-17h442.3c9.4,0,8.4,7.6,8.4,17c0,9.4,0.9,17-8.4,17H886.7"/>
		<path id="XMLID_125_" class="st1" d="M886.7,6035v53c4.9,0,8.9,4,8.9,8.9c0,4.9-4,8.9-8.9,8.9h-42.5c-4.9,0-8.9-4-8.9-8.9
			c0-4.9,4-8.9,8.9-8.9v-53v0l-199.9,0v0c-9.4,0-9-7.6-9-17c0-9.4-0.4-17,9-17h442.3c9.4,0,8.4,7.6,8.4,17c0,9.4,0.9,17-8.4,17
			L886.7,6035"/>
		<path id="XMLID_124_" class="st1" d="M886.7,6210.7v53c4.9,0,8.9,4,8.9,8.9s-4,8.9-8.9,8.9h-42.5c-4.9,0-8.9-4-8.9-8.9
			s4-8.9,8.9-8.9v-53v0H644.3c-9.4,0-9-7.6-9-17c0-9.4-0.4-17,9-17h442.3c9.4,0,8.4,7.6,8.4,17c0,9.4,0.9,17-8.4,17L886.7,6210.7"/>
		<path id="XMLID_123_" class="st1" d="M886.7,6386.5v53c4.9,0,8.9,4,8.9,8.9s-4,8.9-8.9,8.9h-42.5c-4.9,0-8.9-4-8.9-8.9
			s4-8.9,8.9-8.9v-53v0H644.3c-9.4,0-9-7.6-9-17c0-9.4-0.4-17,9-17h442.3c9.4,0,8.4,7.6,8.4,17c0,9.4,0.9,17-8.4,17L886.7,6386.5"/>
		<path id="XMLID_122_" class="st1" d="M844.1,6562.2v53c-4.9,0-8.9,4-8.9,8.9s4,8.9,8.9,8.9h42.5c4.9,0,8.9-4,8.9-8.9
			s-4-8.9-8.9-8.9v-53"/>
		<path id="XMLID_121_" class="st1" d="M361.9,5008.8c0,0,0-29.1,0-29.1h42.5v29.1l-1.8,0.2l-1.7,0.7l-1.5,1.1l-1.1,1.5l-0.7,1.7
			l-0.2,1.8l0.2,1.8l0.7,1.7l1.1,1.5l1.5,1.1l1.7,0.7c0,0,1.8,0.2,1.8,0.2l109.6,0l2.8-0.4l2.6-1.1l2.2-1.7l1.7-2.2l1.1-2.6l0.4-2.8
			l-0.4-2.8l-1.1-2.6l-1.7-2.2l-2.2-1.7l-2.6-1.1l-2.8-0.4v-21.3h98.1c9.4,0,8.1-7.6,8.1-17s1.3-17-8.1-17H404.4l0-56.7l1.8-0.2
			l1.7-0.7l1.5-1.1l1.1-1.5l0.7-1.7l0.2-1.8l-0.2-1.8l-0.7-1.7l-1.1-1.5l-1.5-1.1l-1.7-0.7l-1.8-0.2h-42.5l-1.8,0.2l-1.7,0.7
			l-1.5,1.1l-1.1,1.5l-0.7,1.7l-0.2,1.8l0.2,1.8l0.7,1.7l1.1,1.5l1.5,1.1l1.7,0.7l1.8,0.2v56.7h-35.4l-9.2-1.2l-8.5-3.5l-7.3-5.6
			l-5.6-7.3l-3.5-8.5l-1.2-9.2v-63.8c26.5,0,70.9,0,70.9,0l1.8-0.2l1.7-0.7l1.5-1.1l1.1-1.5l0.7-1.7l0.2-1.8l-0.2-1.8l-0.7-1.7
			l-1.1-1.5l-1.5-1.1l-1.7-0.7l-1.8-0.2l0,0l0,0c0,0,0-29.1,0-29.1h42.5v29.1l-1.8,0.2l-1.7,0.7l-1.5,1.1l-1.1,1.5l-0.7,1.7
			l-0.2,1.8l0.2,1.8l0.7,1.7l1.1,1.5l1.5,1.1l1.7,0.7c0,0,1.8,0.2,1.8,0.2H514l2.8-0.4l2.6-1.1l2.2-1.7l1.7-2.2l1.1-2.6l0.4-2.8
			l-0.4-2.8l-1.1-2.6l-1.7-2.2l-2.2-1.7l-2.6-1.1l-2.8-0.4v-21.3h98.1c9.4,0,8.1-7.6,8.1-17c0-9.4,1.3-17-8.1-17h1H254.7l-23.8,3.1
			l-24.2,10l-20.8,16l-16,20.8l-10,24.2l-3.1,23.8h-53c0-4.9-4-8.9-8.9-8.9s-8.9,4-8.9,8.9v42.5c0,4.9,4,8.9,8.9,8.9s8.9-4,8.9-8.9
			h53v830.4h-53c0-4.9-4-8.9-8.9-8.9s-8.9,4-8.9,8.9v42.5c0,4.9,4,8.9,8.9,8.9s8.9-4,8.9-8.9h53v830.4h-53c0-4.9-4-8.9-8.9-8.9
			s-8.9,4-8.9,8.9v42.5c0,4.9,4,8.9,8.9,8.9s8.9-4,8.9-8.9l53,0l3.1,23.8l10,24.2l16,20.8l20.8,16l24.2,10l23.8,3.1v53
			c-4.9,0-8.9,4-8.9,8.9c0,4.9,4,8.9,8.9,8.9h42.5c4.9,0,8.9-4,8.9-8.9c0-4.9-4-8.9-8.9-8.9v-53h315.9l-1,0c9.4,0,8.1-16.1,8.1-25.5
			c0-9.4,1.3-25.5-8.1-25.5H326.4l-9.2-1.2l-8.5-3.5l-7.3-5.6l-5.6-7.3l-3.5-8.5l-1.2-9.2v-70.9l1.2-9.2l3.5-8.5l5.6-7.3l7.3-5.6
			l8.5-3.5l9.2-1.2h35.4v0v53c-4.9,0-8.9,4-8.9,8.9s4,8.9,8.9,8.9h42.5c4.9,0,8.9-4,8.9-8.9s-4-8.9-8.9-8.9v-53v0h207.8
			c9.4,0,8.1-7.6,8.1-17c0-9.4,1.3-17-8.1-17H326.4l-9.2-1.2l-8.5-3.5l-7.3-5.6l-5.6-7.3l-3.5-8.5l-1.2-9.2v-70.9l1.2-9.2l3.5-8.5
			l5.6-7.3l7.3-5.6l8.5-3.5l9.2-1.2h35.4v0v53c-4.9,0-8.9,4-8.9,8.9s4,8.9,8.9,8.9h42.5c4.9,0,8.9-4,8.9-8.9s-4-8.9-8.9-8.9v-53v0
			h207.8c9.4,0,8.1-7.6,8.1-17c0-9.4,1.3-17-8.1-17H326.4l-9.2-1.2l-8.5-3.5l-7.3-5.6l-5.6-7.3l-3.5-8.5l-1.2-9.2v-70.9l1.2-9.2
			l3.5-8.5l5.6-7.3l7.3-5.6l8.5-3.5l9.2-1.2h35.4v0v53c-4.9,0-8.9,4-8.9,8.9s4,8.9,8.9,8.9h42.5c4.9,0,8.9-4,8.9-8.9s-4-8.9-8.9-8.9
			v-53v0h207.8c9.4,0,8.1-7.6,8.1-17c0-9.4,1.3-17-8.1-17H326.4l-9.2-1.2l-8.5-3.5l-7.3-5.6l-5.6-7.3l-3.5-8.5l-1.2-9.2v-70.9
			l1.2-9.2l3.5-8.5l5.6-7.3l7.3-5.6l8.5-3.5l9.2-1.2h35.4v0v53c-4.9,0-8.9,4-8.9,8.9c0,4.9,4,8.9,8.9,8.9h42.5c4.9,0,8.9-4,8.9-8.9
			c0-4.9-4-8.9-8.9-8.9v-53v0h207.8c9.4,0,8.1-7.6,8.1-17c0-9.4,1.3-17-8.1-17H326.4l-9.2-1.2l-8.5-3.5l-7.3-5.6l-5.6-7.3l-3.5-8.5
			l-1.2-9.2v-70.9l1.2-9.2l3.5-8.5l5.6-7.3l7.3-5.6l8.5-3.5l9.2-1.2h35.4v53c-4.9,0-8.9,4-8.9,8.9c0,4.9,4,8.9,8.9,8.9h42.5
			c4.9,0,8.9-4,8.9-8.9c0-4.9-4-8.9-8.9-8.9v-53h207.8c9.4,0,8.1-7.6,8.1-17c0-9.4,1.3-17-8.1-17H326.4l-9.2-1.2l-8.5-3.5l-7.3-5.6
			l-5.6-7.3l-3.5-8.5l-1.2-9.2v-70.9l1.2-9.2l3.5-8.5l5.6-7.3l7.3-5.6l8.5-3.5l9.2-1.2l35.4,0v53c-4.9,0-8.9,4-8.9,8.9
			c0,4.9,4,8.9,8.9,8.9h42.5c4.9,0,8.9-4,8.9-8.9c0-4.9-4-8.9-8.9-8.9v-53h207.8c9.4,0,8.1-7.6,8.1-17c0-9.4,1.3-17-8.1-17H326.4
			l-9.2-1.2l-8.5-3.5l-7.3-5.6l-5.6-7.3l-3.5-8.5l-1.2-9.2v-70.9l1.2-9.2l3.5-8.5l5.6-7.3l7.3-5.6l8.5-3.5l9.2-1.2h35.4v53
			c-4.9,0-8.9,4-8.9,8.9c0,4.9,4,8.9,8.9,8.9h42.5c4.9,0,8.9-4,8.9-8.9c0-4.9-4-8.9-8.9-8.9v-53h207.8c9.4,0,8.1-7.6,8.1-17
			c0-9.4,1.3-17-8.1-17H326.4l-9.2-1.2l-8.5-3.5l-7.3-5.6l-5.6-7.3l-3.5-8.5l-1.2-9.2v-70.9l1.2-9.2l3.5-8.5l5.6-7.3l7.3-5.6
			l8.5-3.5l9.2-1.2h35.4v53c-4.9,0-8.9,4-8.9,8.9c0,4.9,4,8.9,8.9,8.9h42.5c4.9,0,8.9-4,8.9-8.9c0-4.9-4-8.9-8.9-8.9v-53h207.8
			c9.4,0,8.1-7.6,8.1-17s1.3-17-8.1-17H404.4l0-56.7l1.8-0.2l1.7-0.7l1.5-1.1l1.1-1.5l0.7-1.7l0.2-1.8l-0.2-1.8l-0.7-1.7l-1.1-1.5
			l-1.5-1.1l-1.7-0.7l-1.8-0.2h-42.5l-1.8,0.2l-1.7,0.7l-1.5,1.1l-1.1,1.5l-0.7,1.7l-0.2,1.8l0.2,1.8l0.7,1.7l1.1,1.5l1.5,1.1
			l1.7,0.7l1.8,0.2v56.7h-35.4l-9.2-1.2l-8.5-3.5l-7.3-5.6l-5.6-7.3l-3.5-8.5l-1.2-9.2v-63.8c26.5,0,70.9,0,70.9,0v0l1.8-0.2
			l1.7-0.7l1.5-1.1l1.1-1.5l0.7-1.7l0.2-1.8l-0.2-1.8l-0.7-1.7l-1.1-1.5l-1.5-1.1l-1.7-0.7l-1.8-0.2l0,0c0,0,0-29.1,0-29.1h42.5
			v29.1l-1.8,0.2l-1.7,0.7l-1.5,1.1l-1.1,1.5l-0.7,1.7l-0.2,1.8l0.2,1.8l0.7,1.7l1.1,1.5l1.5,1.1l1.7,0.7c0,0,1.8,0.2,1.8,0.2H514
			l2.8-0.4l2.6-1.1l2.2-1.7l1.7-2.2l1.1-2.6l0.4-2.8l-0.4-2.8l-1.1-2.6l-1.7-2.2l-2.2-1.7l-2.6-1.1l-2.8-0.4v-21.3h98.1
			c9.4,0,8.1-7.6,8.1-17c0-9.4,1.3-17-8.1-17H404.4l0-56.7l1.8-0.2l1.7-0.7l1.5-1.1l1.1-1.5l0.7-1.7l0.2-1.8l-0.2-1.8l-0.7-1.7
			l-1.1-1.5l-1.5-1.1l-1.7-0.7l-1.8-0.2h-42.5l-1.8,0.2l-1.7,0.7l-1.5,1.1l-1.1,1.5l-0.7,1.7l-0.2,1.8l0.2,1.8l0.7,1.7l1.1,1.5
			l1.5,1.1l1.7,0.7l1.8,0.2v56.7h-35.4l-9.2-1.2l-8.5-3.5l-7.3-5.6l-5.6-7.3l-3.5-8.5l-1.2-9.2V5023c26.5,0,70.9,0,70.9,0l1.8-0.2
			l1.7-0.7l1.5-1.1l1.1-1.5l0.7-1.7l0.2-1.8l-0.2-1.8l-0.7-1.7l-1.1-1.5l-1.5-1.1l-1.7-0.7L361.9,5008.8L361.9,5008.8"/>
		<path id="XMLID_120_" class="st1" d="M1369.1,5008.8c0,0,0-29.1,0-29.1h-42.5v29.1l1.8,0.2l1.7,0.7l1.5,1.1l1.1,1.5l0.7,1.7
			l0.2,1.8l-0.2,1.8l-0.7,1.7l-1.1,1.5l-1.5,1.1l-1.7,0.7c0,0-1.8,0.2-1.8,0.2l-109.6,0l-2.8-0.4l-2.6-1.1l-2.2-1.7l-1.7-2.2
			l-1.1-2.6l-0.4-2.8l0.4-2.8l1.1-2.6l1.7-2.2l2.2-1.7l2.6-1.1l2.8-0.4v-21.3h-98.1c-9.4,0-8.1-7.6-8.1-17s-1.3-17,8.1-17h207.8
			l0-56.7l-1.8-0.2l-1.7-0.7l-1.5-1.1l-1.1-1.5l-0.7-1.7l-0.2-1.8l0.2-1.8l0.7-1.7l1.1-1.5l1.5-1.1l1.7-0.7l1.8-0.2h42.5l1.8,0.2
			l1.7,0.7l1.5,1.1l1.1,1.5l0.7,1.7l0.2,1.8l-0.2,1.8l-0.7,1.7l-1.1,1.5l-1.5,1.1l-1.7,0.7l-1.8,0.2v56.7h35.4l9.2-1.2l8.5-3.5
			l7.3-5.6l5.6-7.3l3.5-8.5l1.2-9.2v-63.8c-26.5,0-70.9,0-70.9,0l-1.8-0.2l-1.7-0.7l-1.5-1.1l-1.1-1.5l-0.7-1.7l-0.2-1.8l0.2-1.8
			l0.7-1.7l1.1-1.5l1.5-1.1l1.7-0.7l1.8-0.2l0,0l0,0c0,0,0-29.1,0-29.1h-42.5v29.1l1.8,0.2l1.7,0.7l1.5,1.1l1.1,1.5l0.7,1.7l0.2,1.8
			l-0.2,1.8l-0.7,1.7l-1.1,1.5l-1.5,1.1l-1.7,0.7c0,0-1.8,0.2-1.8,0.2h-109.6l-2.8-0.4l-2.6-1.1l-2.2-1.7l-1.7-2.2l-1.1-2.6
			l-0.4-2.8l0.4-2.8l1.1-2.6l1.7-2.2l2.2-1.7l2.6-1.1l2.8-0.4v-21.3h-98.1c-9.4,0-8.1-7.6-8.1-17c0-9.4-1.3-17,8.1-17h-1h358.4
			l23.8,3.1l24.2,10l20.8,16l16,20.8l10,24.2l3.1,23.8h53c0-4.9,4-8.9,8.9-8.9s8.9,4,8.9,8.9v42.5c0,4.9-4,8.9-8.9,8.9
			s-8.9-4-8.9-8.9h-53v830.4h53c0-4.9,4-8.9,8.9-8.9s8.9,4,8.9,8.9v42.5c0,4.9-4,8.9-8.9,8.9s-8.9-4-8.9-8.9h-53v830.4h53
			c0-4.9,4-8.9,8.9-8.9s8.9,4,8.9,8.9v42.5c0,4.9-4,8.9-8.9,8.9s-8.9-4-8.9-8.9l-53,0l-3.1,23.8l-10,24.2l-16,20.8l-20.8,16
			l-24.2,10l-23.8,3.1v53c4.9,0,8.9,4,8.9,8.9c0,4.9-4,8.9-8.9,8.9h-42.5c-4.9,0-8.9-4-8.9-8.9c0-4.9,4-8.9,8.9-8.9v-53h-315.9l1,0
			c-9.4,0-8.1-16.1-8.1-25.5c0-9.4-1.3-25.5,8.1-25.5h285.7l9.2-1.2l8.5-3.5l7.3-5.6l5.6-7.3l3.5-8.5l1.2-9.2v-70.9l-1.2-9.2
			l-3.5-8.5l-5.6-7.3l-7.3-5.6l-8.5-3.5l-9.2-1.2h-35.4v0v53c4.9,0,8.9,4,8.9,8.9s-4,8.9-8.9,8.9h-42.5c-4.9,0-8.9-4-8.9-8.9
			s4-8.9,8.9-8.9v-53v0h-207.8c-9.4,0-8.1-7.6-8.1-17c0-9.4-1.3-17,8.1-17h285.7l9.2-1.2l8.5-3.5l7.3-5.6l5.6-7.3l3.5-8.5l1.2-9.2
			v-70.9l-1.2-9.2l-3.5-8.5l-5.6-7.3l-7.3-5.6l-8.5-3.5l-9.2-1.2h-35.4v0v53c4.9,0,8.9,4,8.9,8.9s-4,8.9-8.9,8.9h-42.5
			c-4.9,0-8.9-4-8.9-8.9s4-8.9,8.9-8.9v-53v0h-207.8c-9.4,0-8.1-7.6-8.1-17c0-9.4-1.3-17,8.1-17h285.7l9.2-1.2l8.5-3.5l7.3-5.6
			l5.6-7.3l3.5-8.5l1.2-9.2v-70.9l-1.2-9.2l-3.5-8.5l-5.6-7.3l-7.3-5.6l-8.5-3.5l-9.2-1.2h-35.4v0v53c4.9,0,8.9,4,8.9,8.9
			s-4,8.9-8.9,8.9h-42.5c-4.9,0-8.9-4-8.9-8.9s4-8.9,8.9-8.9v-53v0h-207.8c-9.4,0-8.1-7.6-8.1-17c0-9.4-1.3-17,8.1-17h285.7l9.2-1.2
			l8.5-3.5l7.3-5.6l5.6-7.3l3.5-8.5l1.2-9.2v-70.9l-1.2-9.2l-3.5-8.5l-5.6-7.3l-7.3-5.6l-8.5-3.5l-9.2-1.2h-35.4v0v53
			c4.9,0,8.9,4,8.9,8.9c0,4.9-4,8.9-8.9,8.9h-42.5c-4.9,0-8.9-4-8.9-8.9c0-4.9,4-8.9,8.9-8.9v-53v0h-207.8c-9.4,0-8.1-7.6-8.1-17
			c0-9.4-1.3-17,8.1-17h285.7l9.2-1.2l8.5-3.5l7.3-5.6l5.6-7.3l3.5-8.5l1.2-9.2v-70.9l-1.2-9.2l-3.5-8.5l-5.6-7.3l-7.3-5.6l-8.5-3.5
			l-9.2-1.2h-35.4v53c4.9,0,8.9,4,8.9,8.9c0,4.9-4,8.9-8.9,8.9h-42.5c-4.9,0-8.9-4-8.9-8.9c0-4.9,4-8.9,8.9-8.9v-53h-207.8
			c-9.4,0-8.1-7.6-8.1-17c0-9.4-1.3-17,8.1-17h285.7l9.2-1.2l8.5-3.5l7.3-5.6l5.6-7.3l3.5-8.5l1.2-9.2v-70.9l-1.2-9.2l-3.5-8.5
			l-5.6-7.3l-7.3-5.6l-8.5-3.5l-9.2-1.2l-35.4,0v53c4.9,0,8.9,4,8.9,8.9c0,4.9-4,8.9-8.9,8.9h-42.5c-4.9,0-8.9-4-8.9-8.9
			c0-4.9,4-8.9,8.9-8.9v-53h-207.8c-9.4,0-8.1-7.6-8.1-17c0-9.4-1.3-17,8.1-17h285.7l9.2-1.2l8.5-3.5l7.3-5.6l5.6-7.3l3.5-8.5
			l1.2-9.2v-70.9l-1.2-9.2l-3.5-8.5l-5.6-7.3l-7.3-5.6l-8.5-3.5l-9.2-1.2h-35.4v53c4.9,0,8.9,4,8.9,8.9c0,4.9-4,8.9-8.9,8.9h-42.5
			c-4.9,0-8.9-4-8.9-8.9c0-4.9,4-8.9,8.9-8.9v-53h-207.8c-9.4,0-8.1-7.6-8.1-17c0-9.4-1.3-17,8.1-17h285.7l9.2-1.2l8.5-3.5l7.3-5.6
			l5.6-7.3l3.5-8.5l1.2-9.2v-70.9l-1.2-9.2l-3.5-8.5l-5.6-7.3l-7.3-5.6l-8.5-3.5l-9.2-1.2h-35.4v53c4.9,0,8.9,4,8.9,8.9
			c0,4.9-4,8.9-8.9,8.9h-42.5c-4.9,0-8.9-4-8.9-8.9c0-4.9,4-8.9,8.9-8.9v-53h-207.8c-9.4,0-8.1-7.6-8.1-17s-1.3-17,8.1-17h207.8
			l0-56.7l-1.8-0.2l-1.7-0.7l-1.5-1.1l-1.1-1.5l-0.7-1.7l-0.2-1.8l0.2-1.8l0.7-1.7l1.1-1.5l1.5-1.1l1.7-0.7l1.8-0.2h42.5l1.8,0.2
			l1.7,0.7l1.5,1.1l1.1,1.5l0.7,1.7l0.2,1.8l-0.2,1.8l-0.7,1.7l-1.1,1.5l-1.5,1.1l-1.7,0.7l-1.8,0.2v56.7h35.4l9.2-1.2l8.5-3.5
			l7.3-5.6l5.6-7.3l3.5-8.5l1.2-9.2v-63.8c-26.5,0-70.9,0-70.9,0v0l-1.8-0.2l-1.7-0.7l-1.5-1.1l-1.1-1.5l-0.7-1.7l-0.2-1.8l0.2-1.8
			l0.7-1.7l1.1-1.5l1.5-1.1l1.7-0.7l1.8-0.2l0,0c0,0,0-29.1,0-29.1h-42.5v29.1l1.8,0.2l1.7,0.7l1.5,1.1l1.1,1.5l0.7,1.7l0.2,1.8
			l-0.2,1.8l-0.7,1.7l-1.1,1.5l-1.5,1.1l-1.7,0.7c0,0-1.8,0.2-1.8,0.2h-109.6l-2.8-0.4l-2.6-1.1l-2.2-1.7l-1.7-2.2l-1.1-2.6
			l-0.4-2.8l0.4-2.8l1.1-2.6l1.7-2.2l2.2-1.7l2.6-1.1l2.8-0.4v-21.3h-98.1c-9.4,0-8.1-7.6-8.1-17c0-9.4-1.3-17,8.1-17h207.8l0-56.7
			l-1.8-0.2l-1.7-0.7l-1.5-1.1l-1.1-1.5l-0.7-1.7l-0.2-1.8l0.2-1.8l0.7-1.7l1.1-1.5l1.5-1.1l1.7-0.7l1.8-0.2h42.5l1.8,0.2l1.7,0.7
			l1.5,1.1l1.1,1.5l0.7,1.7l0.2,1.8l-0.2,1.8l-0.7,1.7l-1.1,1.5l-1.5,1.1l-1.7,0.7l-1.8,0.2v56.7h35.4l9.2-1.2l8.5-3.5l7.3-5.6
			l5.6-7.3l3.5-8.5l1.2-9.2V5023c-26.5,0-70.9,0-70.9,0l-1.8-0.2l-1.7-0.7l-1.5-1.1l-1.1-1.5l-0.7-1.7l-0.2-1.8l0.2-1.8l0.7-1.7
			l1.1-1.5l1.5-1.1l1.7-0.7L1369.1,5008.8L1369.1,5008.8"/>
	</g>
</g>
<g id="XMLID_94_">
	<g id="XMLID_105_">
		<g id="XMLID_115_">
			<path id="XMLID_117_" class="st0" d="M889.7,2323.9v53c4.9,0,8.9,4,8.9,8.9c0,4.9-4,8.9-8.9,8.9h-42.5c-4.9,0-8.9-4-8.9-8.9
				c0-4.9,4-8.9,8.9-8.9v-53h-89v21.3l2.8,0.4l2.6,1.1l2.2,1.7l1.7,2.2l1.1,2.6l0.4,2.8l-0.4,2.8l-1.1,2.6l-1.7,2.2l-2.2,1.7
				l-2.6,1.1l-2.8,0.4l-368.9,0l-2.8-0.4l-2.6-1.1l-2.2-1.7l-1.7-2.2l-1.1-2.6l-0.4-2.8l0.4-2.8l1.1-2.6l1.7-2.2l2.2-1.7l2.6-1.1
				l2.8-0.4v-21.3l-89,0v53c4.9,0,8.9,4,8.9,8.9c0,4.9-4,8.9-8.9,8.9h-42.5c-4.9,0-8.9-4-8.9-8.9c0-4.9,4-8.9,8.9-8.9v-53l-89,0
				v21.3l2.8,0.4l2.6,1.1l2.2,1.7l1.7,2.2l1.1,2.6l0.4,2.8l-0.4,2.8l-1.1,2.6l-1.7,2.2l-2.2,1.7l-2.6,1.1l-2.8,0.4l-110,0L37,2394.8
				l-14.2,34.2l-4.8,36.7v1984.3l4.8,36.7l14.2,34.2l22.5,29.4l29.4,22.5l34.2,14.2l36.7,4.8h1417.3l36.7-4.8l34.2-14.2l29.4-22.5
				l22.5-29.4l14.2-34.2l4.8-36.7V2465.6l-4.8-36.7l-14.2-34.2l-21.8-28.3h-110l-2.8-0.4l-2.6-1.1l-2.2-1.7l-1.7-2.2l-1.1-2.6
				l-0.4-2.8l0.4-2.8l1.1-2.6l1.7-2.2l2.2-1.7l2.6-1.1l2.8-0.4v-21.3h-89v53c4.9,0,8.9,4,8.9,8.9c0,4.9-4,8.9-8.9,8.9h-42.5
				c-4.9,0-8.9-4-8.9-8.9c0-4.9,4-8.9,8.9-8.9c0,0,0-53,0-53h-89v21.3l2.8,0.4l2.6,1.1l2.2,1.7l1.7,2.2l1.1,2.6l0.4,2.8l-0.4,2.8
				l-1.1,2.6l-1.7,2.2l-2.2,1.7l-2.6,1.1l-2.8,0.4H978.7l-2.8-0.4l-2.6-1.1l-2.2-1.7l-1.7-2.2l-1.1-2.6l-0.4-2.8l0.4-2.8l1.1-2.6
				l1.7-2.2l2.2-1.7l2.6-1.1l2.8-0.4v-21.3H889.7z"/>
			<g id="LINE_13_">
				<path id="XMLID_116_" class="st1" d="M1577.1,3479v830.4c0,0,53,0,53,0c0-4.9,4-8.9,8.9-8.9s8.9,4,8.9,8.9v42.5
					c0,4.9-4,8.9-8.9,8.9s-8.9-4-8.9-8.9h-53l-3.1,23.8l-10,24.2l-16,20.8l-20.8,16l-24.2,10l-23.8,3.1v53c4.9,0,8.9,4,8.9,8.9
					s-4,8.9-8.9,8.9h-42.5c-4.9,0-8.9-4-8.9-8.9s4-8.9,8.9-8.9v-53H300.2v53c4.9,0,8.9,4,8.9,8.9s-4,8.9-8.9,8.9h-42.5
					c-4.9,0-8.9-4-8.9-8.9s4-8.9,8.9-8.9v-53l-23.8-3.1l-24.2-10l-20.8-16l-16-20.8l-10-24.2l-3.1-23.8h-53c0,4.9-4,8.9-8.9,8.9
					s-8.9-4-8.9-8.9v-42.5c0-4.9,4-8.9,8.9-8.9s8.9,4,8.9,8.9h53V3479l-53,0c0,4.9-4,8.9-8.9,8.9s-8.9-4-8.9-8.9v-42.5
					c0-4.9,4-8.9,8.9-8.9s8.9,4,8.9,8.9h53v-830.4h-53c0,4.9-4,8.9-8.9,8.9s-8.9-4-8.9-8.9v-42.5c0-4.9,4-8.9,8.9-8.9s8.9,4,8.9,8.9
					h53l3.1-23.8l10-24.2l16-20.8l20.8-16l24.2-10l23.8-3.1h1221.3l23.8,3.1l24.2,10l20.8,16l16,20.8l10,24.2l3.1,23.8l53,0
					c0-4.9,4-8.9,8.9-8.9s8.9,4,8.9,8.9v42.5c0,4.9-4,8.9-8.9,8.9s-8.9-4-8.9-8.9c0,0-53,0-53,0v830.4h53c0-4.9,4-8.9,8.9-8.9
					s8.9,4,8.9,8.9v42.5c0,4.9-4,8.9-8.9,8.9s-8.9-4-8.9-8.9H1577.1z"/>
			</g>
			<g id="LINE_12_">
			</g>
		</g>
		<g id="XMLID_106_">
			<g id="XMLID_113_">
				<path id="XMLID_114_" class="st1" d="M1596.8,2400.1c-1,0.5-2.7-1.1-2.7-1.1l0,0c-3.5-2.7-8.6-2.4-11.8,0.8
					c-3.2,3.2-3.5,8.3-0.8,11.8l0,0c0,0,1.7,1.7,1.1,2.7l-2.3,5.6c-0.4,1.1-2.7,1.1-2.7,1.1l0,0c-4.4,0.6-7.8,4.4-7.8,8.9
					c0,4.6,3.4,8.3,7.8,8.9l0,0c0,0,2.4,0,2.7,1.1l2.3,5.6c0.5,1-1.1,2.7-1.1,2.7l0,0c-2.7,3.5-2.4,8.6,0.8,11.8
					c3.2,3.2,8.3,3.5,11.8,0.8l0,0c0,0,1.7-1.7,2.7-1.1l5.6,2.3c1.1,0.4,1.1,2.7,1.1,2.7l0,0c0.6,4.4,4.4,7.8,8.9,7.8
					c4.6,0,8.3-3.4,8.9-7.8l0,0c0,0,0-2.4,1.1-2.7l5.6-2.3c1-0.5,2.7,1.1,2.7,1.1l0,0c3.5,2.7,8.6,2.4,11.8-0.8
					c3.2-3.2,3.5-8.3,0.8-11.8l0,0c0,0-1.7-1.7-1.1-2.7l2.3-5.6c0.4-1.1,2.7-1.1,2.7-1.1l0,0c4.4-0.6,7.8-4.4,7.8-8.9
					c0-4.6-3.4-8.3-7.8-8.9l0,0c0,0-2.4,0-2.7-1.1l-2.3-5.6c-0.5-1,1.1-2.7,1.1-2.7l0,0c2.7-3.5,2.4-8.6-0.8-11.8
					c-3.2-3.2-8.3-3.5-11.8-0.8l0,0c0,0-1.7,1.7-2.7,1.1l-5.6-2.3c-1.1-0.4-1.1-2.7-1.1-2.7l0,0c-0.6-4.4-4.4-7.8-8.9-7.8
					c-4.6,0-8.3,3.4-8.9,7.8l0,0c0,0,0,2.4-1.1,2.7L1596.8,2400.1z"/>
			</g>
			<g id="XMLID_111_">
				<path id="XMLID_112_" class="st1" d="M108.3,2400.2c-1,0.5-2.7-1.1-2.7-1.1l0,0c-3.5-2.7-8.6-2.4-11.8,0.8
					c-3.2,3.2-3.5,8.3-0.8,11.8l0,0c0,0,1.7,1.7,1.1,2.7l-2.3,5.6c-0.4,1.1-2.7,1.1-2.7,1.1l0,0c-4.4,0.6-7.8,4.4-7.8,8.9
					c0,4.6,3.4,8.3,7.8,8.9l0,0c0,0,2.4,0,2.7,1.1l2.3,5.6c0.5,1-1.1,2.7-1.1,2.7l0,0c-2.7,3.5-2.4,8.6,0.8,11.8
					c3.2,3.2,8.3,3.5,11.8,0.8l0,0c0,0,1.7-1.7,2.7-1.1l5.6,2.3c1.1,0.4,1.1,2.7,1.1,2.7l0,0c0.6,4.4,4.4,7.8,8.9,7.8
					c4.6,0,8.3-3.4,8.9-7.8l0,0c0,0,0-2.4,1.1-2.7l5.6-2.3c1-0.5,2.7,1.1,2.7,1.1l0,0c3.5,2.7,8.6,2.4,11.8-0.8
					c3.2-3.2,3.5-8.3,0.8-11.8l0,0c0,0-1.7-1.7-1.1-2.7l2.3-5.6c0.4-1.1,2.7-1.1,2.7-1.1l0,0c4.4-0.6,7.8-4.4,7.8-8.9
					c0-4.6-3.4-8.3-7.8-8.9l0,0c0,0-2.4,0-2.7-1.1l-2.3-5.6c-0.5-1,1.1-2.7,1.1-2.7l0,0c2.7-3.5,2.4-8.6-0.8-11.8
					c-3.2-3.2-8.3-3.5-11.8-0.8l0,0c0,0-1.7,1.7-2.7,1.1l-5.6-2.3c-1.1-0.4-1.1-2.7-1.1-2.7l0,0c-0.6-4.4-4.4-7.8-8.9-7.8
					c-4.6,0-8.3,3.4-8.9,7.8l0,0c0,0,0,2.4-1.1,2.7L108.3,2400.2z"/>
			</g>
			<g id="XMLID_109_">
				<path id="XMLID_110_" class="st1" d="M1596.8,4455.4c-1,0.5-2.7-1.1-2.7-1.1l0,0c-3.5-2.7-8.6-2.4-11.8,0.8
					c-3.2,3.2-3.5,8.3-0.8,11.8l0,0c0,0,1.7,1.7,1.1,2.7l-2.3,5.6c-0.4,1.1-2.7,1.1-2.7,1.1l0,0c-4.4,0.6-7.8,4.4-7.8,8.9
					c0,4.6,3.4,8.3,7.8,8.9l0,0c0,0,2.4,0,2.7,1.1l2.3,5.6c0.5,1-1.1,2.7-1.1,2.7l0,0c-2.7,3.5-2.4,8.6,0.8,11.8
					c3.2,3.2,8.3,3.5,11.8,0.8l0,0c0,0,1.7-1.7,2.7-1.1l5.6,2.3c1.1,0.4,1.1,2.7,1.1,2.7l0,0c0.6,4.4,4.4,7.8,8.9,7.8
					c4.6,0,8.3-3.4,8.9-7.8h0c0,0,0-2.4,1.1-2.7l5.6-2.3c1-0.5,2.7,1.1,2.7,1.1l0,0c3.5,2.7,8.6,2.4,11.8-0.8
					c3.2-3.2,3.5-8.3,0.8-11.8l0,0c0,0-1.7-1.7-1.1-2.7l2.3-5.6c0.4-1.1,2.7-1.1,2.7-1.1l0,0c4.4-0.6,7.8-4.4,7.8-8.9
					c0-4.6-3.4-8.3-7.8-8.9l0,0c0,0-2.4,0-2.7-1.1l-2.3-5.6c-0.5-1,1.1-2.7,1.1-2.7l0,0c2.7-3.5,2.4-8.6-0.8-11.8
					c-3.2-3.2-8.3-3.5-11.8-0.8l0,0c0,0-1.7,1.7-2.7,1.1l-5.6-2.3c-1.1-0.4-1.1-2.7-1.1-2.7l0,0c-0.6-4.4-4.4-7.8-8.9-7.8
					c-4.6,0-8.3,3.4-8.9,7.8h0c0,0,0,2.4-1.1,2.7L1596.8,4455.4z"/>
			</g>
			<g id="XMLID_107_">
				<path id="XMLID_108_" class="st1" d="M108.3,4455.5c-1,0.5-2.7-1.1-2.7-1.1l0,0c-3.5-2.7-8.6-2.4-11.8,0.8
					c-3.2,3.2-3.5,8.3-0.8,11.8l0,0c0,0,1.7,1.7,1.1,2.7l-2.3,5.6c-0.4,1.1-2.7,1.1-2.7,1.1l0,0c-4.4,0.6-7.8,4.4-7.8,8.9
					c0,4.6,3.4,8.3,7.8,8.9l0,0c0,0,2.4,0,2.7,1.1l2.3,5.6c0.5,1-1.1,2.7-1.1,2.7l0,0c-2.7,3.5-2.4,8.6,0.8,11.8
					c3.2,3.2,8.3,3.5,11.8,0.8l0,0c0,0,1.7-1.7,2.7-1.1l5.6,2.3c1.1,0.4,1.1,2.7,1.1,2.7l0,0c0.6,4.4,4.4,7.8,8.9,7.8
					c4.6,0,8.3-3.4,8.9-7.8h0c0,0,0-2.4,1.1-2.7l5.6-2.3c1-0.5,2.7,1.1,2.7,1.1l0,0c3.5,2.7,8.6,2.4,11.8-0.8
					c3.2-3.2,3.5-8.3,0.8-11.8l0,0c0,0-1.7-1.7-1.1-2.7l2.3-5.6c0.4-1.1,2.7-1.1,2.7-1.1l0,0c4.4-0.6,7.8-4.4,7.8-8.9
					c0-4.6-3.4-8.3-7.8-8.9l0,0c0,0-2.4,0-2.7-1.1l-2.3-5.6c-0.5-1,1.1-2.7,1.1-2.7l0,0c2.7-3.5,2.4-8.6-0.8-11.8
					c-3.2-3.2-8.3-3.5-11.8-0.8l0,0c0,0-1.7,1.7-2.7,1.1l-5.6-2.3c-1.1-0.4-1.1-2.7-1.1-2.7l0,0c-0.6-4.4-4.4-7.8-8.9-7.8
					c-4.6,0-8.3,3.4-8.9,7.8h0c0,0,0,2.4-1.1,2.7L108.3,4455.5z"/>
			</g>
		</g>
	</g>
	<g id="XMLID_96_">
		<path id="XMLID_104_" class="st0" d="M215,3347.6h-21.3v-368.8H215c4.9,0,8.9-4,8.9-8.9c0-4.9-4-8.9-8.9-8.9v-184.8
			c4.9,0,8.9-4,8.9-8.9c0-4.9-4-8.9-8.9-8.9h-21.3v-192.4l2.3-17.1l6.6-16l10.5-13.7l13.7-10.5l16-6.6l17.1-2.3h452.3l1,0.7l0.9,0.8
			l0.9,0.9l0.8,1l0.7,1l0.6,1.1l0.5,1.2l0.4,1.2l0.2,1.2l0.1,29.5l0,1.2l-0.1,1.2l-0.2,1.4l0.9,6.6l2.5,6.2l4.1,5.3l5.3,4.1l6.2,2.6
			l6.6,0.9l6.6-0.9l6.2-2.6l5.3-4.1l2.2-2l2.4-1.7l2.6-1.4l2.7-1.1l2.8-0.8l2.9-0.5l3-0.2l3,0.2l2.9,0.5l2.9,0.8l2.8,1.1l2.6,1.4
			l5.9,4.5l6.8,2.8l7.3,1l7.3-1l6.8-2.8l5.9-4.5l2.4-2.2l2.7-1.9l2.9-1.5l3-1.2l3.2-0.8l3.2-0.4l3.3,0l3.2,0.4l3.2,0.8l3,1.2
			l2.9,1.5l2.7,1.9l7.3,5.6l8.6,3.5l9.2,1.2l9.2-1.2l8.6-3.5l7.3-5.6l2.8-2.4l3.1-1.9l3.4-1.4l3.6-0.9l3.7-0.3l3.7,0.3l3.6,0.8
			l3.4,1.4l3.2,1.9l2.8,2.4l2.4,2.8l2,3.1l7.3,5.6l8.6,3.5l9.2,1.2l9.2-1.2l8.6-3.5l7.3-5.6l5.6-7.3l3.5-8.6l1.2-37.4l0.5-1l0.6-0.9
			l0.7-0.9l0.7-0.8l0.8-0.7l0.9-0.7l0.9-0.6l1-0.5l1-0.4l1-0.3l1.1-0.2l1.1-0.1h447.7l17.1,2.3l16,6.6l13.7,10.5l10.5,13.7l6.6,16
			l2.3,17.1l0,1783.8l-2.3,17.1l-6.6,16l-10.5,13.7l-13.7,10.5l-16,6.6l-17.1,2.3h-447.7l-1.1-0.1l-1.1-0.2l-1-0.3l-1-0.4l-1-0.5
			l-0.9-0.6l-0.9-0.7l-0.8-0.7l-0.7-0.8l-0.7-0.9l-0.6-0.9l-0.5-1l-1.2-37.4l-3.5-8.6l-5.6-7.3l-7.3-5.6l-8.6-3.5l-9.2-1.2l-9.2,1.2
			l-8.6,3.5l-7.3,5.6l-2,3.1l-2.4,2.8l-2.8,2.4l-3.2,1.9l-3.4,1.4l-3.6,0.8l-3.7,0.3l-3.7-0.3l-3.6-0.9l-3.4-1.4l-3.1-1.9l-2.8-2.4
			l-7.3-5.6l-8.6-3.5l-9.2-1.2l-9.2,1.2l-8.6,3.5l-7.3,5.6l-2.7,1.9l-2.9,1.5l-3,1.2l-3.2,0.8l-3.2,0.4l-3.3,0l-3.2-0.4l-3.2-0.8
			l-3-1.2l-2.9-1.5l-2.7-1.8l-2.4-2.2l-5.9-4.5l-6.8-2.8l-7.3-1l-7.3,1l-6.8,2.8l-5.9,4.5l-2.6,1.4l-2.8,1.1l-2.9,0.8l-2.9,0.5
			l-3,0.1l-3-0.2l-2.9-0.5l-2.8-0.8l-2.7-1.1l-2.6-1.4l-2.4-1.7l-2.2-2l-5.3-4.1l-6.2-2.6l-6.6-0.9l-6.6,0.9l-6.2,2.6l-5.3,4.1
			l-4.1,5.3l-2.5,6.2l-0.9,6.6l0.2,1.4l0.1,1.2l0,1.2l-0.1,1.2l-0.2,29.5l-0.4,1.2l-0.5,1.2l-0.6,1.1l-0.7,1.1l-0.8,1l-0.9,0.9
			l-0.9,0.8l-1,0.7H260l-17.1-2.3l-16-6.6l-13.7-10.5l-10.5-13.7l-6.6-16l-2.3-17.1v-192.1H215c4.9,0,8.9-4,8.9-8.9
			c0-4.9-4-8.9-8.9-8.9v-184.8c4.9,0,8.9-4,8.9-8.9c0-4.9-4-8.9-8.9-8.9h-21.3v-368.9H215c4.9,0,8.9-4,8.9-8.9c0-4.9-4-8.9-8.9-8.9
			v-184.8c4.9,0,8.9-4,8.9-8.9C223.9,3351.6,219.9,3347.6,215,3347.6"/>
		<g id="XMLID_97_">
			<path id="XMLID_103_" class="st1" d="M527.3,2847.3c0-4.9,4-8.9,8.9-8.9s8.9,4,8.9,8.9v42.5c0,4.9-4,8.9-8.9,8.9s-8.9-4-8.9-8.9
				H342.5c0,4.9-4,8.9-8.9,8.9c-4.9,0-8.9-4-8.9-8.9v-42.5c0-4.9,4-8.9,8.9-8.9c4.9,0,8.9,4,8.9,8.9H527.3z"/>
			<path id="XMLID_102_" class="st1" d="M697.3,2960.9c4.9,0,8.9,4,8.9,8.9c0,4.9-4,8.9-8.9,8.9h-42.5c-4.9,0-8.9-4-8.9-8.9
				c0-4.9,4-8.9,8.9-8.9v-184.8c-4.9,0-8.9-4-8.9-8.9c0-4.9,4-8.9,8.9-8.9h42.5c4.9,0,8.9,4,8.9,8.9c0,4.9-4,8.9-8.9,8.9
				L697.3,2960.9z"/>
			<path id="XMLID_101_" class="st1" d="M697.3,3549.8c4.9,0,8.9,4,8.9,8.9c0,4.9-4,8.9-8.9,8.9h-42.5c-4.9,0-8.9-4-8.9-8.9
				c0-4.9,4-8.9,8.9-8.9V3365c-4.9,0-8.9-4-8.9-8.9c0-4.9,4-8.9,8.9-8.9h42.5c4.9,0,8.9,4,8.9,8.9c0,4.9-4,8.9-8.9,8.9L697.3,3549.8
				z"/>
			<path id="XMLID_100_" class="st1" d="M697.3,4139.8c4.9,0,8.9,4,8.9,8.9s-4,8.9-8.9,8.9h-42.5c-4.9,0-8.9-4-8.9-8.9
				s4-8.9,8.9-8.9V3955c-4.9,0-8.9-4-8.9-8.9c0-4.9,4-8.9,8.9-8.9h42.5c4.9,0,8.9,4,8.9,8.9c0,4.9-4,8.9-8.9,8.9L697.3,4139.8z"/>
			<path id="XMLID_99_" class="st1" d="M527.3,3436.6c0-4.9,4-8.9,8.9-8.9s8.9,4,8.9,8.9v42.5c0,4.9-4,8.9-8.9,8.9s-8.9-4-8.9-8.9
				H342.5c0,4.9-4,8.9-8.9,8.9c-4.9,0-8.9-4-8.9-8.9v-42.5c0-4.9,4-8.9,8.9-8.9c4.9,0,8.9,4,8.9,8.9H527.3z"/>
			<path id="XMLID_98_" class="st1" d="M527.3,4026c0-4.9,4-8.9,8.9-8.9s8.9,4,8.9,8.9v42.5c0,4.9-4,8.9-8.9,8.9s-8.9-4-8.9-8.9
				H342.5c0,4.9-4,8.9-8.9,8.9c-4.9,0-8.9-4-8.9-8.9V4026c0-4.9,4-8.9,8.9-8.9c4.9,0,8.9,4,8.9,8.9H527.3z"/>
		</g>
	</g>
</g>
<g id="XMLID_2_">
	<g id="XMLID_12_">
		<g id="XMLID_22_">
			<path id="XMLID_24_" class="st0" d="M889.7,19.5v53c4.9,0,8.9,4,8.9,8.9c0,4.9-4,8.9-8.9,8.9h-42.5c-4.9,0-8.9-4-8.9-8.9
				c0-4.9,4-8.9,8.9-8.9v-53h-89v21.3l2.8,0.4l2.6,1.1l2.2,1.7l1.7,2.2l1.1,2.6l0.4,2.8l-0.4,2.8l-1.1,2.6l-1.7,2.2l-2.2,1.7
				l-2.6,1.1l-2.8,0.4l-368.9,0l-2.8-0.4l-2.6-1.1l-2.2-1.7l-1.7-2.2l-1.1-2.6l-0.4-2.8l0.4-2.8l1.1-2.6l1.7-2.2l2.2-1.7l2.6-1.1
				l2.8-0.4V19.5l-89,0v53c4.9,0,8.9,4,8.9,8.9c0,4.9-4,8.9-8.9,8.9h-42.5c-4.9,0-8.9-4-8.9-8.9c0-4.9,4-8.9,8.9-8.9v-53l-89,0v21.3
				l2.8,0.4l2.6,1.1l2.2,1.7l1.7,2.2l1.1,2.6l0.4,2.8l-0.4,2.8l-1.1,2.6l-1.7,2.2l-2.2,1.7l-2.6,1.1l-2.8,0.4l-110,0L37,90.4
				l-14.2,34.2L18,161.3v1984.3l4.8,36.7l14.2,34.2l22.5,29.4l29.4,22.5l34.2,14.2l36.7,4.8h1417.3l36.7-4.8l34.2-14.2l29.4-22.5
				l22.5-29.4l14.2-34.2l4.8-36.7V161.3l-4.8-36.7l-14.2-34.2L1678,62.1h-110l-2.8-0.4l-2.6-1.1l-2.2-1.7l-1.7-2.2l-1.1-2.6
				l-0.4-2.8l0.4-2.8l1.1-2.6l1.7-2.2l2.2-1.7l2.6-1.1l2.8-0.4V19.5h-89v53c4.9,0,8.9,4,8.9,8.9c0,4.9-4,8.9-8.9,8.9h-42.5
				c-4.9,0-8.9-4-8.9-8.9c0-4.9,4-8.9,8.9-8.9c0,0,0-53,0-53h-89v21.3l2.8,0.4l2.6,1.1l2.2,1.7l1.7,2.2l1.1,2.6l0.4,2.8l-0.4,2.8
				l-1.1,2.6l-1.7,2.2l-2.2,1.7l-2.6,1.1l-2.8,0.4H978.7l-2.8-0.4l-2.6-1.1l-2.2-1.7l-1.7-2.2l-1.1-2.6l-0.4-2.8l0.4-2.8l1.1-2.6
				l1.7-2.2l2.2-1.7l2.6-1.1l2.8-0.4V19.5H889.7z"/>
			<g id="LINE_2_">
				<path id="XMLID_23_" class="st1" d="M1577.1,1174.6V2005c0,0,53,0,53,0c0-4.9,4-8.9,8.9-8.9s8.9,4,8.9,8.9v42.5
					c0,4.9-4,8.9-8.9,8.9s-8.9-4-8.9-8.9h-53l-3.1,23.8l-10,24.2l-16,20.8l-20.8,16l-24.2,10l-23.8,3.1v53c4.9,0,8.9,4,8.9,8.9
					c0,4.9-4,8.9-8.9,8.9h-42.5c-4.9,0-8.9-4-8.9-8.9c0-4.9,4-8.9,8.9-8.9v-53H300.2v53c4.9,0,8.9,4,8.9,8.9c0,4.9-4,8.9-8.9,8.9
					h-42.5c-4.9,0-8.9-4-8.9-8.9c0-4.9,4-8.9,8.9-8.9v-53l-23.8-3.1l-24.2-10l-20.8-16l-16-20.8l-10-24.2l-3.1-23.8h-53
					c0,4.9-4,8.9-8.9,8.9s-8.9-4-8.9-8.9V2005c0-4.9,4-8.9,8.9-8.9s8.9,4,8.9,8.9h53v-830.4l-53,0c0,4.9-4,8.9-8.9,8.9
					s-8.9-4-8.9-8.9v-42.5c0-4.9,4-8.9,8.9-8.9s8.9,4,8.9,8.9h53V301.8h-53c0,4.9-4,8.9-8.9,8.9s-8.9-4-8.9-8.9v-42.5
					c0-4.9,4-8.9,8.9-8.9s8.9,4,8.9,8.9h53l3.1-23.8l10-24.2l16-20.8l20.8-16l24.2-10l23.8-3.1h1221.3l23.8,3.1l24.2,10l20.8,16
					l16,20.8l10,24.2l3.1,23.8l53,0c0-4.9,4-8.9,8.9-8.9s8.9,4,8.9,8.9v42.5c0,4.9-4,8.9-8.9,8.9s-8.9-4-8.9-8.9c0,0-53,0-53,0
					v830.4h53c0-4.9,4-8.9,8.9-8.9s8.9,4,8.9,8.9v42.5c0,4.9-4,8.9-8.9,8.9s-8.9-4-8.9-8.9H1577.1z"/>
			</g>
			<g id="LINE_1_">
			</g>
		</g>
		<g id="XMLID_13_">
			<g id="XMLID_20_">
				<path id="XMLID_21_" class="st1" d="M1596.8,95.8c-1,0.5-2.7-1.1-2.7-1.1l0,0c-3.5-2.7-8.6-2.4-11.8,0.8
					c-3.2,3.2-3.5,8.3-0.8,11.8l0,0c0,0,1.7,1.7,1.1,2.7l-2.3,5.6c-0.4,1.1-2.7,1.1-2.7,1.1l0,0c-4.4,0.6-7.8,4.4-7.8,8.9
					c0,4.6,3.4,8.3,7.8,8.9l0,0c0,0,2.4,0,2.7,1.1l2.3,5.6c0.5,1-1.1,2.7-1.1,2.7l0,0c-2.7,3.5-2.4,8.6,0.8,11.8
					c3.2,3.2,8.3,3.5,11.8,0.8l0,0c0,0,1.7-1.7,2.7-1.1l5.6,2.3c1.1,0.4,1.1,2.7,1.1,2.7l0,0c0.6,4.4,4.4,7.8,8.9,7.8
					c4.6,0,8.3-3.4,8.9-7.8l0,0c0,0,0-2.4,1.1-2.7l5.6-2.3c1-0.5,2.7,1.1,2.7,1.1l0,0c3.5,2.7,8.6,2.4,11.8-0.8
					c3.2-3.2,3.5-8.3,0.8-11.8l0,0c0,0-1.7-1.7-1.1-2.7l2.3-5.6c0.4-1.1,2.7-1.1,2.7-1.1l0,0c4.4-0.6,7.8-4.4,7.8-8.9
					c0-4.6-3.4-8.3-7.8-8.9l0,0c0,0-2.4,0-2.7-1.1l-2.3-5.6c-0.5-1,1.1-2.7,1.1-2.7l0,0c2.7-3.5,2.4-8.6-0.8-11.8
					c-3.2-3.2-8.3-3.5-11.8-0.8l0,0c0,0-1.7,1.7-2.7,1.1l-5.6-2.3c-1.1-0.4-1.1-2.7-1.1-2.7l0,0c-0.6-4.4-4.4-7.8-8.9-7.8
					c-4.6,0-8.3,3.4-8.9,7.8l0,0c0,0,0,2.4-1.1,2.7L1596.8,95.8z"/>
			</g>
			<g id="XMLID_18_">
				<path id="XMLID_19_" class="st1" d="M108.3,95.8c-1,0.5-2.7-1.1-2.7-1.1l0,0c-3.5-2.7-8.6-2.4-11.8,0.8
					c-3.2,3.2-3.5,8.3-0.8,11.8l0,0c0,0,1.7,1.7,1.1,2.7l-2.3,5.6c-0.4,1.1-2.7,1.1-2.7,1.1l0,0c-4.4,0.6-7.8,4.4-7.8,8.9
					c0,4.6,3.4,8.3,7.8,8.9l0,0c0,0,2.4,0,2.7,1.1l2.3,5.6c0.5,1-1.1,2.7-1.1,2.7l0,0c-2.7,3.5-2.4,8.6,0.8,11.8
					c3.2,3.2,8.3,3.5,11.8,0.8l0,0c0,0,1.7-1.7,2.7-1.1l5.6,2.3c1.1,0.4,1.1,2.7,1.1,2.7l0,0c0.6,4.4,4.4,7.8,8.9,7.8
					c4.6,0,8.3-3.4,8.9-7.8l0,0c0,0,0-2.4,1.1-2.7l5.6-2.3c1-0.5,2.7,1.1,2.7,1.1l0,0c3.5,2.7,8.6,2.4,11.8-0.8
					c3.2-3.2,3.5-8.3,0.8-11.8l0,0c0,0-1.7-1.7-1.1-2.7l2.3-5.6c0.4-1.1,2.7-1.1,2.7-1.1l0,0c4.4-0.6,7.8-4.4,7.8-8.9
					c0-4.6-3.4-8.3-7.8-8.9l0,0c0,0-2.4,0-2.7-1.1l-2.3-5.6c-0.5-1,1.1-2.7,1.1-2.7l0,0c2.7-3.5,2.4-8.6-0.8-11.8
					c-3.2-3.2-8.3-3.5-11.8-0.8l0,0c0,0-1.7,1.7-2.7,1.1l-5.6-2.3c-1.1-0.4-1.1-2.7-1.1-2.7l0,0c-0.6-4.4-4.4-7.8-8.9-7.8
					c-4.6,0-8.3,3.4-8.9,7.8l0,0c0,0,0,2.4-1.1,2.7L108.3,95.8z"/>
			</g>
			<g id="XMLID_16_">
				<path id="XMLID_17_" class="st1" d="M1596.8,2151.1c-1,0.5-2.7-1.1-2.7-1.1l0,0c-3.5-2.7-8.6-2.4-11.8,0.8
					c-3.2,3.2-3.5,8.3-0.8,11.8l0,0c0,0,1.7,1.7,1.1,2.7l-2.3,5.6c-0.4,1.1-2.7,1.1-2.7,1.1l0,0c-4.4,0.6-7.8,4.4-7.8,8.9
					c0,4.6,3.4,8.3,7.8,8.9l0,0c0,0,2.4,0,2.7,1.1l2.3,5.6c0.5,1-1.1,2.7-1.1,2.7l0,0c-2.7,3.5-2.4,8.6,0.8,11.8
					c3.2,3.2,8.3,3.5,11.8,0.8l0,0c0,0,1.7-1.7,2.7-1.1l5.6,2.3c1.1,0.4,1.1,2.7,1.1,2.7l0,0c0.6,4.4,4.4,7.8,8.9,7.8
					c4.6,0,8.3-3.4,8.9-7.8l0,0c0,0,0-2.4,1.1-2.7l5.6-2.3c1-0.5,2.7,1.1,2.7,1.1l0,0c3.5,2.7,8.6,2.4,11.8-0.8
					c3.2-3.2,3.5-8.3,0.8-11.8l0,0c0,0-1.7-1.7-1.1-2.7l2.3-5.6c0.4-1.1,2.7-1.1,2.7-1.1l0,0c4.4-0.6,7.8-4.4,7.8-8.9
					c0-4.6-3.4-8.3-7.8-8.9l0,0c0,0-2.4,0-2.7-1.1l-2.3-5.6c-0.5-1,1.1-2.7,1.1-2.7l0,0c2.7-3.5,2.4-8.6-0.8-11.8
					c-3.2-3.2-8.3-3.5-11.8-0.8l0,0c0,0-1.7,1.7-2.7,1.1l-5.6-2.3c-1.1-0.4-1.1-2.7-1.1-2.7l0,0c-0.6-4.4-4.4-7.8-8.9-7.8
					c-4.6,0-8.3,3.4-8.9,7.8h0c0,0,0,2.4-1.1,2.7L1596.8,2151.1z"/>
			</g>
			<g id="XMLID_14_">
				<path id="XMLID_15_" class="st1" d="M108.3,2151.1c-1,0.5-2.7-1.1-2.7-1.1l0,0c-3.5-2.7-8.6-2.4-11.8,0.8
					c-3.2,3.2-3.5,8.3-0.8,11.8l0,0c0,0,1.7,1.7,1.1,2.7l-2.3,5.6c-0.4,1.1-2.7,1.1-2.7,1.1l0,0c-4.4,0.6-7.8,4.4-7.8,8.9
					c0,4.6,3.4,8.3,7.8,8.9l0,0c0,0,2.4,0,2.7,1.1l2.3,5.6c0.5,1-1.1,2.7-1.1,2.7l0,0c-2.7,3.5-2.4,8.6,0.8,11.8
					c3.2,3.2,8.3,3.5,11.8,0.8l0,0c0,0,1.7-1.7,2.7-1.1l5.6,2.3c1.1,0.4,1.1,2.7,1.1,2.7l0,0c0.6,4.4,4.4,7.8,8.9,7.8
					c4.6,0,8.3-3.4,8.9-7.8l0,0c0,0,0-2.4,1.1-2.7l5.6-2.3c1-0.5,2.7,1.1,2.7,1.1l0,0c3.5,2.7,8.6,2.4,11.8-0.8
					c3.2-3.2,3.5-8.3,0.8-11.8l0,0c0,0-1.7-1.7-1.1-2.7l2.3-5.6c0.4-1.1,2.7-1.1,2.7-1.1l0,0c4.4-0.6,7.8-4.4,7.8-8.9
					c0-4.6-3.4-8.3-7.8-8.9l0,0c0,0-2.4,0-2.7-1.1l-2.3-5.6c-0.5-1,1.1-2.7,1.1-2.7l0,0c2.7-3.5,2.4-8.6-0.8-11.8
					c-3.2-3.2-8.3-3.5-11.8-0.8l0,0c0,0-1.7,1.7-2.7,1.1l-5.6-2.3c-1.1-0.4-1.1-2.7-1.1-2.7l0,0c-0.6-4.4-4.4-7.8-8.9-7.8
					c-4.6,0-8.3,3.4-8.9,7.8h0c0,0,0,2.4-1.1,2.7L108.3,2151.1z"/>
			</g>
		</g>
	</g>
	<g id="XMLID_3_">
		<path id="XMLID_11_" class="st0" d="M215,1043.2h-21.3V674.4H215c4.9,0,8.9-4,8.9-8.9s-4-8.9-8.9-8.9V471.7c4.9,0,8.9-4,8.9-8.9
			c0-4.9-4-8.9-8.9-8.9h-21.3V261.5l2.3-17.1l6.6-16l10.5-13.7l13.7-10.5l16-6.6l17.1-2.3h452.3l1,0.7l0.9,0.8l0.9,0.9l0.8,1l0.7,1
			l0.6,1.1l0.5,1.2l0.4,1.2l0.2,1.2l0.1,29.5l0,1.2l-0.1,1.2l-0.2,1.4l0.9,6.6l2.5,6.2l4.1,5.3l5.3,4.1l6.2,2.6l6.6,0.9l6.6-0.9
			l6.2-2.6l5.3-4.1l2.2-2l2.4-1.7l2.6-1.4l2.7-1.1l2.8-0.8l2.9-0.5l3-0.2l3,0.2l2.9,0.5l2.9,0.8l2.8,1.1l2.6,1.4l5.9,4.5l6.8,2.8
			l7.3,1l7.3-1l6.8-2.8l5.9-4.5l2.4-2.2l2.7-1.9l2.9-1.5l3-1.2l3.2-0.8l3.2-0.4l3.3,0l3.2,0.4l3.2,0.8l3,1.2l2.9,1.5l2.7,1.9
			l7.3,5.6l8.6,3.5l9.2,1.2l9.2-1.2l8.6-3.5l7.3-5.6l2.8-2.4l3.1-1.9l3.4-1.4l3.6-0.9l3.7-0.3l3.7,0.3l3.6,0.8l3.4,1.4l3.2,1.9
			l2.8,2.4l2.4,2.8l2,3.1l7.3,5.6l8.6,3.5l9.2,1.2l9.2-1.2l8.6-3.5l7.3-5.6l5.6-7.3l3.5-8.6l1.2-37.4l0.5-1l0.6-0.9l0.7-0.9l0.7-0.8
			l0.8-0.7l0.9-0.7l0.9-0.6l1-0.5l1-0.4l1-0.3l1.1-0.2l1.1-0.1h447.7l17.1,2.3l16,6.6l13.7,10.5l10.5,13.7l6.6,16l2.3,17.1l0,1783.8
			l-2.3,17.1l-6.6,16l-10.5,13.7l-13.7,10.5l-16,6.6l-17.1,2.3h-447.7l-1.1-0.1l-1.1-0.2l-1-0.3l-1-0.4l-1-0.5l-0.9-0.6l-0.9-0.7
			l-0.8-0.7l-0.7-0.8l-0.7-0.9l-0.6-0.9l-0.5-1l-1.2-37.4l-3.5-8.6l-5.6-7.3l-7.3-5.6l-8.6-3.5l-9.2-1.2l-9.2,1.2l-8.6,3.5l-7.3,5.6
			l-2,3.1l-2.4,2.8l-2.8,2.4l-3.2,1.9l-3.4,1.4l-3.6,0.8l-3.7,0.3l-3.7-0.3l-3.6-0.9l-3.4-1.4l-3.1-1.9l-2.8-2.4l-7.3-5.6l-8.6-3.5
			l-9.2-1.2l-9.2,1.2l-8.6,3.5l-7.3,5.6l-2.7,1.9l-2.9,1.5l-3,1.2l-3.2,0.8l-3.2,0.4l-3.3,0l-3.2-0.4l-3.2-0.8l-3-1.2l-2.9-1.5
			l-2.7-1.8l-2.4-2.2l-5.9-4.5l-6.8-2.8l-7.3-1l-7.3,1l-6.8,2.8l-5.9,4.5l-2.6,1.4l-2.8,1.1l-2.9,0.8l-2.9,0.5l-3,0.1l-3-0.2
			l-2.9-0.5l-2.8-0.8l-2.7-1.1l-2.6-1.4l-2.4-1.7l-2.2-2l-5.3-4.1l-6.2-2.6l-6.6-0.9l-6.6,0.9l-6.2,2.6l-5.3,4.1l-4.1,5.3l-2.5,6.2
			l-0.9,6.6l0.2,1.4l0.1,1.2l0,1.2l-0.1,1.2l-0.2,29.5l-0.4,1.2l-0.5,1.2l-0.6,1.1l-0.7,1.1l-0.8,1l-0.9,0.9l-0.9,0.8l-1,0.7H260
			l-17.1-2.3l-16-6.6l-13.7-10.5l-10.5-13.7l-6.6-16l-2.3-17.1v-192.1H215c4.9,0,8.9-4,8.9-8.9s-4-8.9-8.9-8.9v-184.8
			c4.9,0,8.9-4,8.9-8.9s-4-8.9-8.9-8.9h-21.3v-368.9H215c4.9,0,8.9-4,8.9-8.9s-4-8.9-8.9-8.9v-184.8c4.9,0,8.9-4,8.9-8.9
			S219.9,1043.2,215,1043.2"/>
		<g id="XMLID_4_">
			<path id="XMLID_10_" class="st1" d="M527.3,542.9c0-4.9,4-8.9,8.9-8.9s8.9,4,8.9,8.9v42.5c0,4.9-4,8.9-8.9,8.9s-8.9-4-8.9-8.9
				H342.5c0,4.9-4,8.9-8.9,8.9c-4.9,0-8.9-4-8.9-8.9v-42.5c0-4.9,4-8.9,8.9-8.9c4.9,0,8.9,4,8.9,8.9L527.3,542.9z"/>
			<path id="XMLID_9_" class="st1" d="M697.3,656.6c4.9,0,8.9,4,8.9,8.9s-4,8.9-8.9,8.9h-42.5c-4.9,0-8.9-4-8.9-8.9s4-8.9,8.9-8.9
				V471.8c-4.9,0-8.9-4-8.9-8.9s4-8.9,8.9-8.9h42.5c4.9,0,8.9,4,8.9,8.9s-4,8.9-8.9,8.9L697.3,656.6z"/>
			<path id="XMLID_8_" class="st1" d="M697.3,1245.5c4.9,0,8.9,4,8.9,8.9s-4,8.9-8.9,8.9h-42.5c-4.9,0-8.9-4-8.9-8.9s4-8.9,8.9-8.9
				v-184.8c-4.9,0-8.9-4-8.9-8.9s4-8.9,8.9-8.9h42.5c4.9,0,8.9,4,8.9,8.9s-4,8.9-8.9,8.9L697.3,1245.5z"/>
			<path id="XMLID_7_" class="st1" d="M697.3,1835.4c4.9,0,8.9,4,8.9,8.9s-4,8.9-8.9,8.9h-42.5c-4.9,0-8.9-4-8.9-8.9s4-8.9,8.9-8.9
				v-184.8c-4.9,0-8.9-4-8.9-8.9s4-8.9,8.9-8.9h42.5c4.9,0,8.9,4,8.9,8.9s-4,8.9-8.9,8.9L697.3,1835.4z"/>
			<path id="XMLID_6_" class="st1" d="M527.3,1132.3c0-4.9,4-8.9,8.9-8.9s8.9,4,8.9,8.9v42.5c0,4.9-4,8.9-8.9,8.9s-8.9-4-8.9-8.9
				H342.5c0,4.9-4,8.9-8.9,8.9c-4.9,0-8.9-4-8.9-8.9v-42.5c0-4.9,4-8.9,8.9-8.9c4.9,0,8.9,4,8.9,8.9H527.3z"/>
			<path id="XMLID_5_" class="st1" d="M527.3,1721.6c0-4.9,4-8.9,8.9-8.9s8.9,4,8.9,8.9v42.5c0,4.9-4,8.9-8.9,8.9s-8.9-4-8.9-8.9
				H342.5c0,4.9-4,8.9-8.9,8.9c-4.9,0-8.9-4-8.9-8.9v-42.5c0-4.9,4-8.9,8.9-8.9c4.9,0,8.9,4,8.9,8.9H527.3z"/>
		</g>
	</g>
</g>
<line id="XMLID_92_" class="st2" x1="2569.6" y1="72.5" x2="2569.6" y2="72.5"/>
</svg>
